<mxfile host="Electron" agent="Mozilla/5.0 (Windows NT 10.0; Win64; x64) AppleWebKit/537.36 (KHTML, like Gecko) draw.io/25.0.2 Chrome/128.0.6613.186 Electron/32.2.5 Safari/537.36" version="25.0.2">
  <diagram name="Pagina-1" id="25ddKiNYMoLhqvpHDPPu">
    <mxGraphModel dx="4879" dy="1553" grid="1" gridSize="10" guides="1" tooltips="1" connect="1" arrows="1" fold="1" page="1" pageScale="1" pageWidth="827" pageHeight="1169" math="0" shadow="0">
      <root>
        <mxCell id="0" />
        <mxCell id="1" parent="0" />
        <mxCell id="tGGM6Ti0a13EQPrKwUca-35" value="" style="shape=image;verticalLabelPosition=bottom;labelBackgroundColor=default;verticalAlign=top;aspect=fixed;imageAspect=0;image=data:image/png,iVBORw0KGgoAAAANSUhEUgAABSAAAAEaCAIAAACO2W6eAAAAKnRFWHRjb3B5bGVmdABHZW5lcmF0ZWQgYnkgaHR0cHM6Ly9wbGFudHVtbC5jb212zsofAAABQGlUWHRwbGFudHVtbAABAAAAeJx9kUFPwkAQhe/7Kyac4FCihBDlYFBQE2wjEct9KEOzcTvbbGcx8uvdRgzpBj1t8uabN+9lZ42gE18ZhYVYB71ciIV6gA3kDTml+u0zgCS5g35qS82DWLJeutpGNx6NPh4RFlaCre7OV47YCkLgtOCfu/d17VmwCoEig8zu9F4XHcR2kTlyQcbEiDp1+IHWuhGq2gSnGrF8oUmMRGX+cej0ibnLlWLqcquImhHv2h9VK4MseZbCgVyjLcP1cHQ1Gg9vtyQ46ef8wfaTobBVrQ2B6IrCjedVCo31riDYBUunt17C8kAt8YDwFs4GbgqvNfFy8fIrwCMftLPcJlLLTXYGJuPkQQusyYUYsMnUgvbojYSNIpTmcgr5+1Nyo1Lk0mMZvInV3AZf9xVma/UNf3HbUKUZyv4AAIAASURBVHhe7N13VBVbnj78np7umTUzPbNmeq1Zq29Qr0rOIoqYlSAGFANgBIwoYERFkCSgGBAJkpGgqKCCKApIkuhVQMkqYkAMICgoIkiQ+35fapofva8i4QAnPJ8/WIeqfc6p2lW1az+n0h9+AwAAAAAAAIAB+wM7AAAAAAAAAAD6DgEbAAAAAAAAgAcQsAEAAAAAAAB4AAEbAAAAAAAAgAcQsAEAAAAAAAB4AAEbAEAU3b9//8SJEwc7HTp0iF4/ePCALQQAAAAAfYGADQAgWiorK21tbU+dOvXy5csPf0evaQgNf/HiBfsGAAAAAOgdBGwAABFy9+5dOzu72trarmjdHQ2nsVSGfRsAAAAA9AICNgCAqHj58qW9vT2bqn+HylBJ9s0AAAAA8D0I2AAAosLW1vZbx667445js28GAAAAgO9BwAYAEAllZWUhISFsmP4GKknl2Y8AAAAAgB4hYAMAiAQvL6/udzXrGZU8efIk+xEAAAAA0CMEbAAAkXD48GE2RvfoyJEj7EcAAAAAQI8QsAEARAICNgAAAMBgQ8AGABAJFJjZDN2jo0ePsh8BAAAAAD1CwAYAEAne3t59ugabyrMfAQAAAAA9QsAGABAJjx49On36NJukv4FKUnn2IwAAAACgRwjYAACi4sCBA2/fvmXD9O9QGSrJvhkAAAAAvgcBGwBAVLx+/drJyYnN079DZagk+2YAAAAA+B4EbAAAEVJQUED5+d27d2yq7kTDnZ2dqQz7NgAAAADoBQRsAADRwh3HPn36dHV1dUNDA+Xqjx8/0uszZ87g2DUAAADAQCBgAwCIovLy8pMnT7q6uq5du5b+0msawhYCAAAAgL5AwAYAEGmUrtlBAAAAANAvCNgAACINARsAAACAVxCwAQBEGgI2AAAAAK8gYAMAiDQEbAAAAABeQcAGABBpCNgAAAAAvIKADQAg0hCwAQAAAHgFARsAQKQhYAMAAADwCgI2AIBwioyMdO2FJUuWsIO+hj6N/QIAAAAA+EcI2AAAIs0VR7ABAAAAeAQBGwBApCFgAwAAAPAKAjYAgEhDwAYAAADgFQRsAACRhoANAAAAwCsI2AAAIg0BGwAAAIBXELABAEQaAjYAAAAAryBgAwCINARsAAAAAF5BwAYAEGkI2AAAAAC8goANACDSELABAAAAeAUBGwBApCFgAwAAAPAKAjYAgEhDwAYAAADgFQRsAACRhoANAAAAwCsI2AAAIg0BGwAAAIBXELABAEQaAjYAAAAAryBgAwCINARsAAAAAF5BwAYAEGkI2AAAAAC8goANACCQ2tvb2UH9wquA/eXLF3YQAAAAgIhBwAYAEAxv375NTU319fU1NTWdPXv22LFj29ra2EJ9x5OATWl/9OjR06dPX7dunYuLy5UrV0pLS1taWthyAAAAAEINARsAgB99+fLlwYMHly9fPnDgwMqVK2VlZaWkpPT09GxtbSMjI0tKSlpbW9n39F1TU9Py5cvpLzui7z59+nT//v3Y2Nhjx45t2LBh5syZI0aMmDZtmrGx8cGDB2lGaJqbm5vZtwEAAAAIEQRsAAC+8PHjx5ycnKCgIAsLCy0trV9++YXSKSVVT0/PxMTEqqoq9g0DRhme4nppaSn9HeAJ3pT2paWlFy9efOLEidzcXO70dfr78OHD69ev08BNmzbNnj2bIvfkyZONjIycnJyioqKKiop4ku0BAAAA+AQCNgDA8KDMfOPGDXd393Xr1qmpqY0ZM2bu3LlWVlYhISH5+fmfPn1i3/CPBn4Ctqur66NHj+gF/R34ieIUlW/evOno6KihoSEuLm5oaBgUFMR9fpeOjg4aEhcX5+HhYWJioq6uPmrUKFVVVSp84MCByMjIgoKCxsbG7m8BAAAAECAI2AAAQ4Gy5YMHD6Kjox0cHAwMDKSlpeXk5FavXk2J9OrVq2VlZewbvoHy56VLl4yNjentAznjOiwsLDs7u+tfek1Duo0fkHfv3sXExFhYWFB4VlJSMjc3p/D8+vVrtlynx48fx8fHe3l5mZqaUjgfPXq0iooK1QxV1Llz5/Lz8xsaGtj3AAAAAPAlBGwAgEFB6begoCA0NNTS0lJbW5ty45QpUzZs2HDy5MmkpKTa2lr2DT369OlTVFTU2rVrJSQkDA0NL168+PHjR7ZQryUkJNCnMQNpCA1nBg7c8+fPw8PDTUxMZGRkpk6damVlRXG658z89OnTGzdueHt7UzLX0tIaM2bMuHHjVq1aZWdnRx919+7dDx8+sO8BAAAA4AMI2AAAvEGpLysry9/f39TUdNasWaNGjdLQ0LCwsAgKCsrNze3fmc9NTU2XL19ev3495WpKmJGRkQPPlhT7fXx82KGdaDiNZYfyTnFxMcXm5cuXi4mJzZ8/38XFJTs7uzfnulNKT0xM9PX13b59u7a2Nr1dUVFxxYoVtra2YWFheXl5A68WAAAAgIFDwAYA6Kfa2lpKfdxF1BMnTqTUt3DhQhsbm/Pnzw/wLt+Uq69evbpx40bK1RQjIyIieBUgX7x44eTkxA7thsZSGXYor1HlULQ+fPjwggULqN4MDAwoeBcVFbHlvu3ly5fJycl+fn67du2aO3euuLi4vLw8fQ7Vf2hoaE5OTn19PfseAAAAgEGGgA0A0FuVlZVxcXEuLi6GhoYU56SlpZcvX37gwIHY2NjHjx+zpfuuubn52rVrJiYmlKspK1JQf//+PVtoACilW1tb95z8aSyV4VWe742Ghob4+Hj60qlTp1KV0uyHh4dXVFSw5b6nqqoqJSXF399/9+7d8+bNozqUk5PT09Pbv39/SEjI7du36+rq2PcAAAAA8BQCNgDANz158uTq1asUoSnuSkpKKikpGRkZHT16lALhq1ev2NL99fnzZ8rtW7ZsoUyor69/9uzZwYiCvU/OvcnhvzeQO651oZB84cIFc3NzquqJEydaWFjExMT0uzaqq6tTU1MDAgL27t27YMECWoKysrJLly6luQsODs7Ozn737h37HgAAAIABQMAGAPh/Hjx4EBUVZWdnt3jxYnFxccp469at8/DwSEpK4nkYa2lpoaBuZmZGuVpPTy88PLxPX9HXQNunc7+/eyY5o6mpSVlZ+ejRo999uljvPXr0KCgoyNDQUExMTFNT09HRMS0tbYDPza6pqaEPCQwMtLS01NHRkZKSkpGRoWVtZWV16tSpzMzMt2/fsu8BAAAA6DUEbAAQXR0dHffv379w4YKtrS3FrTFjxkyZMmXjxo2+vr4Uw3h7enYXytU3btwwNzenXL106dLTp0/39Y7ibW1tPj4+KioqvU+b/bh7WQ/3Qvuq169fm5mZKSkpRUREUMWyowegvb09JyfHzc1NV1eXwjZVmru7e15e3pcvX9iifUeVn56eTkl+3759ixYtku5EL+hfGkij+rp0AAAAQJQhYAOACKFIVlpaSgnQxsZm/vz5o0ePnjZt2ubNm/39/bOzs3t+dtQAtba2JiUlbdu2jXL1kiVLQkNDa2pq2EK9UFhYqKmpaWBg8Pz5c3bcN/T7+VtffZpXz+7du6ejo0NT+Ouvv7LjeOHTp0+pqakODg6zZ88WFxc3NjYOCQnhyQXwXd6+fZuZmXnq1CkrK6vFixfLyMhISUnRTFlaWgYGBqalpfVvwQEAAIAoQMAGAGFGifr+/fuRkZGUqOfNm0eJesaMGaampgEBAZQAB/Io6V6iXE2BcPv27ZKSkrq6usHBwdXV1Wyh3mlqaqJgqaCgcOnSJXbct2VnZ4eFhbFDe43eS5/ADv2emJiYCRMmrF+//tmzZ+w43qmtrY2Ojt61a5eKisq4ceOokqlm3rx5w5YbsHfv3lEl0LKztrZesmQJRW5amhS59+7dSyvSzZs3EbkBAACAg4ANAEKl66xvStQLFizgjlFzifr27dv9exh1P7S1taWlpe3cuVNKSmrRokWBgYFVVVVsob6gFDdx4kRzc/M+3fHr0aNHrq6u7NA+ok+gz2GHfk9LS4uHhwdl0QMHDvTmzmoD9PTp07CwsA0bNlD0nTFjhq2tbVJS0uAtbloKt27dosi9f//+ZcuWycrKSkhIzJ8/n4vcqampg5HzAQAAgP8hYAOAwCsvL4+Kiup+HTV31jdFoCE4Rt0d5er09PRdu3ZJS0vTxFDWev36NVuoj96+fWtqaqqqqkqJnR3Xo5qaGqqTgV+oTJ9An9O/g7S1tbUWFhby8vKhoaFUOezoQdDR0ZGfn+/p6amnp8c9mfzYsWN37tzp603R+4oi9+3bt0NCQihy01fLyclxkXvPnj1c5O73mQsAAAAgQBCwAUDwVFRUxMbGOjg4LF26VFxcnMLnhg0bfH19s7KyBvU66m9pb2/PzMykJCkrK0uZys/Pj1cP8YqMjKR06ujo2Pv7mXWhsNePd30VfQ59Gju01+7fv6+vrz99+vSbN2+y4wbT58+f09PTDx48qK2tTWF79erVlHUfPHjAlhsc9fX1FOyp3mxsbGj2ucg9b9683bt3c5F7gCc1AAAAAB9CwAYAAUBRJD4+/tChQ8uXL5eUlFRWVl67dq2npycFtkG613dvfPnyJTs7e+/evZSd5s6d6+3t3fvnYH1XRUUFpTItLa3i4mJ2nGBKTEycMmUKLcF+nHA+cLSexMbG7tmzR01NTUFBwdTUNCIigle/g/QSRe6cnJzQ0FCK3AYGBvLy8lzktrCw8Pf3T0lJQeQGAAAQdAjYAMCPKIokJyefOHHC2NiY4pCsrKyhoaGrqyuFtGF/UnFHR8etW7f27dtHE0YB2MvLq7Kyki00AG1tbSdPnpSRkfHz82tvb2dHC7LW1tbAwEA5OTlLS8s+PfSbt2h5nT17dvPmzbReUeanRRkXFzcs5z5Q7EfkBgAAECYI2ADAFz5+/JidnU2RcsOGDRMnTqSYoa+v7+TkRMnn5cuXbOlhcvv27f379yspKWloaHh4eFRUVLAlBqygoEBdXX3FihW9DO0PHjxgJoOCa25uLm+fRM1blCptbW0p3Pr4+Az2pdHfVVJSQpNBFS4mJjZ//nwXFxdaD1taWthyQ6UrclMVIXIDAAAIHARsABgelKyKioqCg4O3b98+a9as0aNH6+joUKiIiooqLy9nSw8rCjw0YZSrKfqeOHHi6dOnbAle+PTpk52dnYKCQp8ePa2qqrp+/fruQ86cOfOHP/yhubmZXpuamh4+fLj72H7gyYf83pMnT4yMjCZNmnT9+nV23HCgFfLWrVs0pwsWLKCwTeHW29ubH87P5yJ3WFgYIjcAAAD/Q8AGgKFTVlZ28eJFGxsbbW1tStSUVykkUCAsKSnhw3Ohc3Nz7e3tlZWVZ86c6ebmRoGQLcE7qampEyZM2LZtW319PTuuRz0H7Pnz52/fvr372H7gyYd8S2ZmJq0Gurq6RUVF7Ljh09DQEB8fb2VlNXXqVBkZGRMTk/Dw8OfPn7PlhgmOcgMAAPAtBGwAGETV1dUUVJydnfX09MTFxdXU1CirBAQEUDzg1Q2uee7evXsHDhxQUVGZPn26q6vrYB9O557CNWnSpPT0dHZcL/QQsH18fH788UeKXgadum7ode3aNcrMSkpKtFDu3r3LDaRldO7cOYpntIxoxoODg7nhffqQ/vny5cvZs2cVFRUpxvNhMnz9+nVkZKS5uTlNIS2m3bt3X716ta+/gwy2b13LjTuWAwAADDEEbADgpY8fP2ZlZXl7e69du5bSl7S0tKGhoZubW0pKyjDe7rs3CgsLKWROmDBhypQpR48effjwIVtiEHBP4XJycuIOOPdDDwE7Nzd3/PjxFIMvduJu4kXJ+S9/+cvhw4eTk5Pt7e3/7d/+jWachqurq48YMWL58uVXrlw5dOjQH//4RyrwW+dh/N5/yEDQmuPi4kIrzPHjx/n2xxdaKyivrlmzRkxMbM6cObTCpKen93vZDSomcv/+IWF4LjcAAMBgQMAGgAFpb28vKSmhfvzOnTu7LqW2s7OjnMY/p9T2oLi4mHIdxVQ1NTVKjKWlpWyJwfHs2TM9PT0KaVR77Li+6CFg//a7s7vb2tr+93//19PTs2uIsbHxihUrfusM2BSku26NRhNmZmbGve79hwzcixcvtmzZMm7cOArz/HyfNqoEiq+urq6LFi2isL1s2TIPD4/8/Hx+nubukbvrudy0cPfs2cNF7jdv3rDvAQAAgD5CwAaAPnv58uW1a9fs7e0XLlxIiXr27NmUrsPCwvjzUuqvoiBNcZpCNQVUCtgDTLl9QtnMy8tLRkbG399/4NXVp4BdXFxMozZv3kzLzs7OztbWVktLS0FB4bfOgN29JKXcJUuWcK97/yG8kpubS1+qra19584ddhz/aWxsTE5OpnqYOXMmRVZaHLQtDOoV+7xSX19PNRwSErJ//349Pb2uyL13716K3GlpaTU1Nex7AAAAoEcI2ADwfR8/fszMzKRYyD2VmtAL+pcG0ii2NB97+PDh0aNHp0yZMmHCBGdn54Gf2NxXfX0K13dpaGgYGBh0H+Lt7f0v//IvX758+e132ZjSFGXjPXv2uHTj4+PzW2fAtrS07CppZma2aNEi7nXvP4S3oqKiVFRUNm3aJBCnQnDevHlDk03VpaysTBO/c+fO6Ojo2tpathy/osh9+/ZtLnIvW7ZMVlZWUlJSR0eH1o3AwECK3AI0LwAAAMMCARsAvqKjo6O0tDQ8PNzCwmL27Nncid/29vaxsbH881Tq3isvL3d1dZ02bRplHkdHx3v37rElBl//nsL1XSYmJpSCug+hbCwlJcW9ppC8devWrlHv3r374x//eOnSpa4hXXoI2L3/EJ77/Pmzu7u7tLS0s7Mzd/m3AHn8+DElVWNjY3FxcdqIHBwcUlNTaTVgy/G3urq6W7duBQcHW1tbL1myREZGhtYuag327dsXFBSUkZHx9u1b9j0AAAAiDAEbAP4PBaeEhIRDhw4tW7ZMTEyM4ui2bdsoIRQXF7e1tbGlBcGTJ0/c3NxmzpyprKxsb2+fm5vLlhgq/X4K13fRTP3TP/3TkSNHKIt++fKFluBf/vIXmmtuLH3j5MmTq6urP378yF0evGbNmjFjxnQdur9//35SUtJvPQbs3n/IIHnz5s2uXbsUFBTOnDkz8JPqhx4tl7y8PHd3dwqotGUtXryYFhAtOEGcl986G4rs7OxTp05ZWVnRvEh3orWF/qWBWVlZVIB9DwAAgMhAwAYQXa2trQUFBYGBgVu2bFFVVZWQkFi5cqWrq2tKSsqHDx/Y0oLj2bNnFGYoMSopKdna2g7vdbxdT+HKyMhgx/GIr6/v//zP//zxj3/813/91z//+c+0NGnJcqOePHkyZcqUf//3f//DH/7w4MGD3zovGF67du2f/vSnv/71r//xH/9Bf/38/H7rMWD3/kMGVUlJydKlS2fOnJmWlsaOExxNTU03b950dHSkChcXFzcyMqJQOtiPghtstJJnZmYGBQXt27ePVhspKSkZGRnK3tbW1sHBwbdu3aqrq2PfAwAAIKQQsAFEy+vXr2NjY+3s7BYsWDB69GguVkVGRj569IgtKmieP3/u6empqampqKhIPfvbt2+zJYbcwJ/C1UttbW0UfYuKiij6suO+pqGhgQpXVFQM5CAqTz6krxISEiZPnrxq1SpBD6W/dR4Kvnz5soWFxYQJE5SUlLZt23bx4kXheHpWbW1tenp6YGAgNS86OjqSkpKysrJLly7dv39/SEgIbZs8P5UDAACATyBgAwi5lpaWvLw8f3//9evXjxs3Tk5OztjY+OTJk9nZ2QJ3OehXvXjxwtvbW1tbm6Is9eZv3brFD49K4tVTuOD3WltbAwICaE22srISmkOjtMKcPn1648aNlEWnT59uY2OTmJjYy59LBEJNTU1aWhotuL17986fP19CQoKWoL6+Ps1paGhoTk7O+/fv2fcAAAAIIARsACH06tWr2NhYW1vbefPmjRkzRlNTk3qxUVFRFRUVbFGBRfPo5+dHPXVZWdndu3dnZWVx980edm1tbSdPnpSRkaHJG8pDu6Kmvr5+//79tPSpnrtOiRcCHR0dBQUFnp6eFD7FxMR0dHSOHTt2+/ZtYZpHTnV1dWpqKkVu2n6ppaLILS8vv3z5cmq4Tp8+fffuXYG+UAUAAEQWAjaAMKDOd9dhaiUlpa7D1L/++mtTUxNbWpBVVVVRj5xSh7S09K5duzIyMvgqxPL8KVzQs8ePH69Zs0ZNTS0+Pp4dJ/g+f/5Ma/jBgwe1tbUpbK9atYpWfu4yeKFEW3dycrKfnx9t2twsU2u2cuVKOzu78PDwe/fuCdyd5AEAQAQhYAMIqpqaGgoVDg4OlDbHjBmjoaGxf//+6OhoYTpM3aW6uvrUqVO6urpSUlI7duxIS0vjtxubD9JTuIbA3/72N3aQoKEUOmvWrCVLlhQXF7PjhMX79+9jY2P37NmjpqZGq5mZmVlERMSrV6/YcsLl5cuXSUlJvr6+27dvnzNnztixY8eNG7dq1Spq986fP19QUCBMZ9EDAIBwQMAGEBhfvnwpKSkJDg42NTVVVVWVlJQ0NDR0d3fPysoSjqupf6+mpiY0NJSCk4SExLZt25KTk/nzRNnBewrXEBCCgE3a29vDw8MVFRV37NghHPcJ60FlZeXZs2c3b94sKys7ZcoUKyur+Ph4ETm6+/z58xs3bnh7e5uZmWlqao4ePZo2vTVr1hw4cODChQtFRUVCds4OAAAIHARsAL724cMHSpWHDx/W09MbO3bszJkzLSwszp8/LwQ3/e7Bu3fvzpw5s2zZMsrV5ubm1J9uaWlhC/EH7ilcqqqq6enp7DgBIRwBm/Px48dDhw5JS0u7ubkN9p3b+URJSYmPj8/y5cvFxMTmz59PbUV2djZ//g41SJ48eZKQkODl5bVlyxZ1dfVRo0apqakZGRk5OTlFRUVR/Xz+/Jl9DwAAwKBBwAbgO0+fPr1w4cKePXtmzZpFoZqi9ZEjRwT92dS9UV9ff+7cOX19fcrVlFrj4+P5vGc8ZE/hGlTCFLA5lZWVmzdvVlZWvnTpEjtOeFGopmhNAZtiNoVtitwUvEXzJvbl5eXUeri7u2/atGn27NkjRoyYMmWKsbHxoUOHYmJiSktLReoHCAAAGGII2ADDj7tFmZ+f39q1a+Xk5CgYmJiYBAYGFhcX89UdvAbJhw8fIiIiVqxYQbmaZjw2Npb/82pFRYW+vr6WlpYQXPQrfAGbk5OTM2/evLlz59ILdpywa2hooIRpZWVFwVJWVnbz5s1nz54V2Rvvffnypays7Pr168ePH9+wYcPMmTMpck+fPn3dunVHjhyhBufBgwf8dk8HAAAQXAjYAMPj/fv3CQkJTk5OCxcu5G5RZmNjExMTI/R3LepCGeDChQurV6+mXL1+/Xqad4G4eFL4nsIlrAGbExUVNX78eBMTE5GNl69fv46IiDAzM1NQUFBTU9uzZw9FShF/6DRtxRSqqR4oYFPMprBNkZuCN8VvCuEUxSmQ88lj/wAAQOAgYAMMnadPn0ZGRlpYWFB/TlxcfMWKFW5ubhkZGcJ6i7Kvopm9dOmSkZER5WpjY2PKPwI0+4WFhRoaGsuXLxemtCbcAZs0NzefOHFCWlr60KFDInInsG+hVBkQELB69WoxMTFtbe2DBw9S+8PnF2IMjdbW1tLS0piYGFpJqF2aMmUKRW51dXUTExMPD4/4+PjHjx+z7wEAAPgaBGyAQdTe3l5QUEA92vXr1ysoKCgrK2/evPnUqVMlJSUdHR1saaHW1NR0+fLldevWUa42NDS8ePHix48f2UJ87NOnT/b29oL4FK7vEvqAzamurt6xYwctwfDwcOE49WAgKE/evn372LFjCxcupLCtr6/v6elJjZWotUs9aG5uLi4upu3dycnJyMhIVVX1l19+0dDQMDU19fb2vnHjhlA+EBEAAAYOARuAxyg3pqWlHT16VE9Pb8yYMerq6vv27aNe2suXL9miIoA6qbGxsZs2baJcvXLlysjISEG8VdvNmzcnTpy4devWuro6dpzgE5GAzSkpKVmyZMmsWbME967vPNfY2JiYmGhjYzN9+nRJScmNGzeePn362bNnbDmR9+nTp8LCwoiICAcHh9WrVysrK48dO3bOnDnbt2/39fVNTk4WnQt8AACgBwjYADxQW1t77do1W1tbTU1N6nItXrzYxcWF+lsiez7q58+f4+LitmzZQrnawMDg3LlzgviA6N86HxjGPYUrLS2NHScsRCpgc+Lj4ydPnkwZCef9Mqqrqy9evLht2zYlJaUJEyZYWFhcvnyZtgK2HHSiFv7evXvh4eHU+K9YsUJBQUFcXHzu3LlUbwEBAampqTU1Nex7AABA2CFgA/TT06dPIyIidu7cST11ipFGRkbe3t65ubmi/ACYlpaWGzdumJubU4UsW7aM+p0C3TW/cOGCvLy8o6OjQNx9rd9EMGD/1nmOtL+/v5yc3P79+wX015/BVl5efurUKWrZKDSqq6vThnDz5k3h3hYG7sOHDzk5OaGhoTY2Nnp6erKyspKSkjo6Ovv27QsKCsrMzBToJhEAAHoDARugtzo6OkpKSgIDAzdu3KioqKisrLxlyxbqSN2/f58tKmIoq6SkpGzbto1y9ZIlS8LCwmpra9lCAqWiosLAwEBLS6uoqIgdJ3REM2Bz6urqrK2tKWZT2Bbln8Z61t7enpub6+bmtnjxYjExMdrG3d3d8/LycJ/t3qB1LDs7+9SpU1ZWVosWLZKSkpKRkVm6dOn+/ftDQkLu3Lkj4nd0BwAQPgjYAD2hPndOTo6np+fKlSvFxcWnT5++Z8+eS5cuCdNNpPutra0tLS1tx44d1GWkjiP1IKurq9lCgoZmytvbm3rAvr6+InIrLFEO2Jzy8vLVq1dPnjw5Pj6eHQf/6NOnT6mpqQ4ODrNnz6Ymce3atZQScaZ9n9TW1lLLGRAQQHuTefPmSUhIyMvLL1++3NbW9syZM/fu3RPZa4sAAIQDAjYAq7m5OTs7+/jx48uWLRs7dqyWlpadnR31vHEeKYdiZ2ZmpoWFBaVQHR0d6iZWVVWxhQRTUVGRpqamgYHB8+fP2XHCCwGbk56ePmvWrKVLl5aUlLDj4GsoKEZHR+/cuVNFRUVZWXn79u1RUVFv3rxhy8H3UBOanJzs5+e3Y8eOOXPm0H6H6nP16tUODg6RkZGFhYUC9CxDAABAwAb4/zU2Nqalpbm4uCxcuJA6NwsWLHB2dqYej2A9SmpQdXR0ZGdnW1paysvLz50718fHR5jui97U1ER9WZq1S5cuseOEHQJ2l/b29vDwcAUFBQqNCIp98uTJk7CwsPXr10tISMycOdPOzo7aT2pX2XLQO8+fP79x44a3t7epqamGhsaoUaPU1NSMjIxox3T58uWSkpKWlhb2PQAAwB8QsEF0ffjwITEx8cCBAxQXuVt/HzlyJCMjA3fxYdy+fXv//v2Kioqampqenp7Cd3p8WlraxIkTzc3NRfP+QwjYjIaGhoMHD0pLS584caK5uZkdDT3q6Oi4d++eh4fHsmXLxMTEFi1a5OrqmpOT09bWxhaFvigvL4+Li3N3d9+4ceOsWbNGjBgxffr0devW0W4rNjb2wYMHInJJCwAA/0PABtFCCer69eu2trbq6uoUqg0MDKgPTQESRwN+Lzc3187Obty4cbNnz6ZaEsrn4tL6YGZmRulaiJ/C9V0I2F9VWVlpYmIyfvz4qKgodhz0TnNzM21Zzs7OWlpaFLbXrFkTGBhYVlbGloO+ozhNoZqiNQVsitkUtilyU/Cm+E0hPD4+ngI5+x4AABgSCNgg/Kqqqi5fvmxpaTljxgxxcfHVq1d7e3vfvXsXR1S+Kj8/39HRUUVFhXpsrq6uQnz7okuXLsnLyzs4OIj4OQsI2D3IycmZO3fuvHnz6AU7Dvqivr7+ypUru3fvVlVVVVRUNDc3j4yMFJrbN/CDlpaWkpIS2tk5OzsbGRlNmjTpl19+0dDQMDU1pV1eYmKi8J18BADAnxCwQThRT+LChQu7du1SU1OTlpZeu3ZtQEBAcXFxR0cHWxQ6UeUcOnRo4sSJkydPPnr06MOHD9kSQuT58+cGBgaampqi8BSu70LA/q5Lly4pKytv3rwZEYUnaAMMDw83MTGhxnnq1KnW1tYJCQm44QXPffr0qbCwMCIiwsHBYdWqVUpKSmJiYtra2rRn9Pf3T01NxY0GAAAGAwI2CA/q+54/f37r1q3jx49XVFSk3ltISMiDBw/YctAN1c+RI0fU1NRUVVVdXFyE/v7J7e3tvr6+MjIyPj4+OIWBg4DdG83NzW5ubhQIDx06hCjIQ0VFRSdPnjQwMKDsp6OjQ83RrVu38EzyQfLhw4e8vLywsDBbW1t9fX1ZWVlJSUmq9n379gUFBWVlZYnmfSgAAHgLARsE2+vXry9evLhjx46JEycqKChs2bIlPDz8yZMnbDn4R+Xl5a6urtOmTVNRUXFyciooKGBLCCPqymtpaVFXvqKigh0nwhCwe6+6uppaG0VFRWpncE8p3mppaaGA5+LiMm/ePArbK1as8PX1LS0tZcsBT9XV1WVnZ586dcrKymrhwoWUtyl16+np2djYUA6nNE6ZnH0PAAD0CAEbBM+bN2+io6MtLCwmT55MXYGNGzeGhobihi698fTp0xMnTsyaNUtZWdne3p46T2wJIdXU1OTo6CgvL3/x4kV2nMhDwO6r4uLiJUuWzJ49OyMjgx0HvECh7vr165aWltTIy8nJmZqanjt37sWLF2w5GAQ1NTWpqakBAQG0k9XW1hYTE1NSUlq1apWDg0NERAQeyg0A8F0I2CAY3r17d/XqVepvTZs2TVJScu3atUFBQTj9u5eeP3/u6empoaFB/aT9+/ffuXOHLSHU0tLSVFVVqY+Osx+/CgG7f+Li4tTU1NasWSPENwLkBy9fvjx//jxtv/Ly8pS39+7de+3aNRxWHUqVlZWJiYnMQ7mNjY2dnZ1jYmJKS0txSj8AQHcI2MC/qAtFXVgKhLNmzRIXFzc0NPT39y8uLmbLwTdQx9THx2fu3LnUMbW0tLx165ao3eOtrq7O3Nx84sSJN2/eZMfB3yFg9xvlCj8/P1lZWRsbm/r6enY08Nr9+/epwleuXCkmJkYt26FDhzIzMz9//syWg0H26NEj2jufOHFi48aNM2fOHDFixIwZM9avX+/q6nr9+vWysjJR29cAAHSHgA38paGh4caNG/b29hoaGmPHjqWOlLe3d35+/pcvX9ii8A1VVVUBAQE6OjoyMjIWFhbUARXNi0WjoqIUFBQcHBxwQmPPELAHqK6uzsrKSk5OjrY7HMobGlTPv/7669GjR6mho7BtYGDg5eVVWFjIloMhQYvj/v37V65ccXFxMTY2njx58qhRo9TV1bknhNE+HbffBwCRgoANw6+xsTElJcXJyUlbW5tCNXWVPDw88vLycJPnPqmpqQkJCdHV1ZWUlNyxY0daWprIViB15pYvX66hoYEOd28gYPNEeXn5qlWrKFokJCSw42Awffz4kSLc/v37p02bJiUltWnTpjNnzuBGhsOrqampqKgoMjLSwcFh9erVXU8Is7CwCAgIuHnzZm1tLfseAABhgYANw+Pz588ZGRkuLi4LFiygUL106VI3N7c7d+7g+E9fvXv3Ljw8nCpQQkLC3Nw8MTFRlOuwvb3dz89PRkbG29tbZH9f6CsEbB5KS0ubOXMmbY9C/8Q7/lRVVXXhwoWtW7dSops4cSLFuZiYmLq6OrYcDDnuCWGhoaE2NjbLli2jVlpKSkpXV9fa2jo4OJj2/u/fv2ffAwAgmBCwYeh0dHTk5+d7enrq6+tzjzw9evRodnY2rqDrB+qLnD9/3sDAgHL1li1b4uLiUI3FxcVaWlq0duHgVZ8gYPNWe3v7mTNnFBQUdu7c+ebNG3Y0DJVHjx4FBQUZGhrS7kZTU9PJySktLa25uZktB8Pk3bt3GRkZgYGBe/funTdvHu3LaKtZuXKlnZ3duXPnCgoKGhsb2fcAAAgCBGwYdE+ePAkLC9uwYQPtPmfMmGFra5uUlIQdZ/80NDRcuHBh1apVVJlUpVeuXEF/kVAlUO9ZXl4+MjKSHQffg4A9GGhTdXZ2lpaWdnd3x49fw6u9vT0nJ8fNzU1XV5fC9tKlS2mh3L17F7f24DevXr2i7oGvr+/WrVs1NTV/+eUXVVVVIyMj2pQuX75cUlIiyudnAYAAQcCGQVFbWxsVFbVz504VFRVlZeXt27dfunQJB3P67dOnT1SfxsbGlKvpL73Gjbu6pKenc0/hevv2LTsOegEBe/A8f/5806ZN48ePp22WHQfDgVrOlJQUBweHWbNmUXO6bt26kJCQJ0+esOWAPzx+/Dg+Pt7d3X3jxo20yLpuV378+PHr168/evQItysHAD6EgA08Qx2X5ORke3t7ruOydu1adFwGqLm5+erVq9zB/1WrVl24cKGhoYEtJMLq6+u3bds2YcKE1NRUdhz0GgL2YMvJydHW1p4/f35ubi47DoZP1w/B48ePV1ZW3rFjB/1bU1PDlgO+0dbWxt2u/NChQ7+/XXliYuKLFy/Y9wAADDkEbBgQ2ttR39HV1XXRokViYmLLli3DqXcD19LSEh8fv2XLFsrVBgYG586dw91ffo97CpednR0O5g8QAvYQ6OjouHjxIqU42q6RAfjQkydPQkND169fT63uzJkzqWFJTk5G28L/ut+ufNWqVUpKSuLi4nPnzt2zZ09gYGBGRsa7d+/Y9wAADDIEbOiPhw8fBgQErF69mkK1lpaWs7Mzbh4zcK2trUlJSVu3bqUe3tKlS8+cOYNznr+qsrJyxYoV6urqBQUF7DjoOwTsIUON5PHjx6WlpV1cXD5+/MiOBj7Q0dFx7949Dw+PZcuW0Q5u0aJFtMhycnLwVAJB8eHDB1peISEh1tbWurq6UlJSMjIyenp6NjY2YWFhd+/exYlgADDYELCht169ehUREWFmZqagoDBp0qQ9e/ZcvXq1vr6eLQd9RP22tLS0HTt2SEpKUm8gODgYF6t/S3t7u7+/P/WWTp48if4uryBgD7Gqqqrt27crKiqGh4fjZB9+1tzcTI2zs7OzlpYWhe01a9YEBgaWlZWx5YC/1dTUpKam0r5j165dc+bMGTt27Pjx42lpOjo6RkVFlZSUtLS0sO8BABgABGzoCXdZtbW19ZQpU2RlZTdv3nz27NnKykq2HPQddayzsrJ2795NcXHBggUBAQHU7WYLQTfUDaK+kZ6e3rNnz9hxMAAI2MOiqKho8eLFs2fPzszMZMcB/6mvr79y5Qq12KqqqoqKiubm5pGRkWi0BRTtRBISEjw9PTdt2kTb4IgRI6ZPn75+/XpXV1fcOw0ABg4BG76CkoyXlxd3ghz9pdc0hC0E/XX79m0rKysFBQWKi97e3rgg87u6nsIVERHBjoMBQ8AeRtSbV1NTMzQ0xP0gBcjz58/Dw8NNTExkZGSmTp1qbW0dHx+PE48FV1tb24MHD65everi4tJ17zQNDQ0zMzMfH5/ExMSXL1+y7wEA+DYEbPg/b9++jYqK2rp1KwU/2rtQjwG3eOGtu3fv2tvbjxs3Tl1d3d3dvaKigi0BX5ORkTFp0iQ8hWvwIGAPr9bWVl9fX1lZWVtbW1x0I3CKioq8vb0NDAzExMQWLFhw+PDhW7du4XHNgq6pqamwsDAiIoL22itXrlRUVBQXF583b97evXsDAwMzMzNx7zQA6AECtkijTgB1BVxcXObMmUM7j3Xr1p05cwZngPNWSUnJwYMHJ0yYMG3aNFdX18ePH7Ml4Bu6nsKVkpLCjgPeQcDmB3V1dfv27ZOTkwsICEA8E0QtLS1ZWVm0P6UYRmF7xYoVPj4+OPlLaLx///7OnTvBwcHW1taLFi2SlJSUlZXV19e3tbWljlN+fj5uWwgAXRCwRVFFRUVYWJixsTF1AubOnXvkyBHabeCWUbxVVlZ29OjRyZMnT5o06fDhw/fv32dLQI/wFK4hg4DNPx49erRy5UpqN27cuMGOA8HR0NAQFxe3b98+3L5EiL158yYlJcXf33/Hjh1aWlqjR4+eOHGikZGRs7PzlStXSktL8UsZgMhCwBYVjY2N1GOj/b2ampqSktL27dujo6Pr6urYcjAwz549O3HixKxZs1RUVJycnAoLC9kS8D3UDaWMoa6unp+fz46DQYCAzW/S0tJmzJixbNky6qOz40DQcA/gMDU1VVBQoP3vnj17YmNj379/z5YDwffkyZP4+HjqA2zYsIE24REjRlBnYNOmTR4eHjQct+cEEB0I2EKuqKiIWvYlS5aIiYnp6+t7e3s/ePCALQQD9vLly5MnT2ppaSkpKdna2ubk5LAloBe6nsLl5eWFUyqGDAI2H6Jt4fTp0xTJdu3aVVNTw44GwfTw4cOAgIDVq1fTHnnOnDkHDx5MT0///PkzWw6EQmtra0lJSVRUlKOj45o1a8aPHz927FhtbW0LCwtaDdLS0nBjEQBhhYAthKg3dvHiRTMzMzk5ualTp1LeS01NbWpqYsvBgFVVVdFuUkdHR15e3tLS8tatW3i2R79xT+FatmwZfuYfYgjYfOvDhw9OTk4yMjLu7u6IYcKEotedO3eOHTu2cOFCCtt6enoeHh75+fnYgwi3hoaGvLy80NDQ/fv3L1myRFpamrZu2uvZ2NicPn363r17uJAbQDggYAuJL1++5OTkHD58WFNTU0JCYsOGDeHh4Xj+0yB5+/ZtWFgY7R1p17hr167MzMz29na2EPRac3Ozs7OznJwcnsI1LBCw+VxFRcXGjRtVVFSio6PZcSD4Ghsbk5KSbG1tZ8yYwe2+af/y9OlTthwIo9ra2ps3b/r7++/cuXPOnDljxoyZMGGCoaGhk5NTTEwMLuQGEFAI2ILt/fv3UVFRZmZm0tLS6urqLi4ud+7cQdgbJFTb586d09fXl5KS2rZtW2pqKvZ8A8c9hWvLli3Uz2DHwZBAwBYIt2/fpv73ggUL8vLy2HEgLN68eUP79O3btysrK6uoqFDoio6ORtsoUrgLud3d3Tdu3Dhz5swRI0bQX3pNQ2g4fnkBEAgI2AKptLSUmtqFCxeKi4sbGxuHh4e/fv2aLQQ80tjYePHixdWrV0tKSpqamtIerqWlhS0EfVdfX0/9SOpE4ilcwwsBW1B0dHRcuHBh3Lhx1BC9fPmSHQ3C5fHjxyEhIWvXrpWQkJg9e7aDgwM1lXiqgqjhLuSOjo52cnIyNDSkPebYsWPnzJmza9cuXMgNwLcQsAUG7VYTEhIsLCyod6WmpmZra0sNK5Le4GlqaoqJiVm3bh3l6g0bNly9erW5uZktBP0VFRWlqKiIp3DxAwRswUJNk6urq7S0tIuLS2NjIzsahM6XL1/u3r3r7u6+dOlSMTExXV3d48eP5+Tk4E6QoqmhoYHWh7CwMBsbG1oluAu59fT0qFsYHh6en5+PZgFg2CFg87unT58GBgYaGBiIi4vr6+sHBAQ8efKELQS809LSEh8fv3nzZsrVRkZGlAORAHkLT+HiNwjYgqiqqmrbtm1KSkrnzp2jAMaOBiHV3Nyclpbm5OSkqalJYdvQ0DAoKKisrIwtB6KktrY2NTXV399/+/btWlpav/zyy6RJk4yNjV1cXGJjYx8+fIgmAmCIIWDzo9bW1oyMDDs7u8mTJ1P/ycLCgiIfYt6gojpPTk7eunWrlJTUihUrIiMjGxoa2EIwMHgKF39CwBZchYWFurq66urqWVlZ7DgQdnV1dVeuXKEegqqqKnUVzM3Nac9VVVXFlgPRU15efv36dVdX13Xr1k2bNm3kyJHUSpiamvr4+CQlJeGiQoDBhoDNR2i/ePbs2bVr14qLi+vo6Li7uxcXF7OFgKco8mVkZOzatUtWVnbZsmXh4eH19fVsIeAF7ilcenp6eAoXv0HAFnTXrl3jDljh/CaR9fz5c9p/mZiYSEtLT5061crKKj4+Hj8TA6e5ubmoqCgiIsLe3n7lypXy8vISEhLUz6T1JDg4OCcn58OHD+x7AGAAELCHWdfjtTQ0NKSkpExNTaOiourq6thywFMdHR2//vqrpaUl7WZ0dXVpB1NTU8MWAh6hXbuTkxNVNZ7CxZ8QsIVAa2urt7e3rKysra3t+/fv2dEgSoqLi2llMDAwEBMTmz9/PnUwsrOz8cwL6K6+vp7WiqCgoL17986dO5dWlXHjxq1Zs8bR0ZF6oSUlJVhhAAYCAXt4fPz48fLly8zjtXCRzBDIzc2lDqiSktK8efP8/PxwotRg457CZWpqijud8i0EbKHx7t076i7LyclRvxlXYUBLSwuFKOpgUMymBLV8+XIK3jgzDr7q+fPnCQkJnp6emzZtmjVr1siRI7s/HgynngH0CQL2kKI4FxoaamBgICEhsWbNGjxea8gUFRU5OzurqKioq6t7eHhUVlayJYDX6uvrt23bNmHCBDyFi88hYAuZsrIyilJTpkxJSkpix/0dHq0sahoaGigmWVlZTZ06VUZGxsTEhHoglKnYcgCdWltbS0tLL1++zD0ebPz48WPHjtXW1t69e3dAQEBGRgbOtQToAQL2UCgpKTl+/LiWlpaCgsKuXbsSEhKamprYQjAIHj58eOTIETU1tWnTprm6uuICxSETFRVFazuewiUQELCFUmpqKrV7+vr69+/fZ8f99lt+fn5kZCQ7FETD69evaembm5srKiqqqqpaWFhcuXIFeQl61tDQkJubGxISYm1traurKykpKScnt3z5ctrRR0REFBUV4VGmAF0QsAdLW1tbZmamjY3NhAkTZs6c6eLiQg0TWwgGx9OnT93c3GbMmEFdB6r5r/YvYZBUVlauWLFCXV29oKCAHQd8CQFbWNFuiHrD8vLylKCYQ9YtLS1jx459+PBh94EggsrKygIDAw0NDcXExDQ1NZ2cnNLS0nAMAHqjqqoqKSnJx8fH1NSUdvojRoyYPn36+vXrjx8/HhcXh0MaIMoQsHmssbExJibGzMxMVlZWT0+P9ls4BWvIvHjxwsvLi7oIysrKBw4cQMAbDNRlf/ToETu0U3t7u5+fn4yMzMmTJ3H9Jz8rLy/v/i8TsJmxIOg+fPhA7SFtmJ6enpSru4ZPnTqVsjeiFHCo0c7JyaFopKurS2F76dKl7u7ueXl5uDsM9BL1Ae7fv3/lyhVnZ2dDQ0MVFZUxY8bMmTPHwsKCO6v83bt37HsAhBQCNm9UVVWdPn3awMCAcrWpqWl0dDQejzFkqPKp7Z4/f76CgoK1tfWdO3fYEsA7FJ4fPHjADu28b62WlhaewiUQ/Pz8bt261fVv94BNw2ls178gNGjDXLdu3cSJE6n7yw2hXu+PP/64atWqfywI8NunT59SU1MdHBzU1dXFxcWNjY2Dg4Px0xv0VfezynV0dCQkJJizyj9//sy+B0AoIGAPyP37993c3LS1tZWUlCwtLdPT0/FggyFTU1NDrbaurq6MjAz1FLOysvBD+2B7/vw57SCZlbypqcnR0VFeXh6XdAqKt2/f0lbTlbG7AjYNoeG437sQo0WsqalJPd179+6FhYWpqqqOGDEiNDSULQfwd9QgREdH79q1a8KECePGjdu2bdvFixerqqrYcr1TWVmJ0/pE2atXrxITE729vTdv3jx79mzurPINGzacOHEC9yoHYYKA3WdtbW2U5WxtbSdOnDht2jQXF5e7d++yhWDQ1NfXnz17Vk9PT1JSkvb0KSkp+FFjyKxcuVJJSan7kLS0NOqj4ylcAmf9+vWjR4/mMjYXsOn1L7/8YmJiwhYF4dLR0REREUEbMm3OysrKtPRHjhxZVlbGlgP4Hco/p0+f3rhxo5SUFOWi/fv337hx4+PHj2y5Hu3duzc/P58dCiKp617ljo6Oa9asoRZp7Nixc+fO3bNnT1BQEO2V3r9/z74HQBAgYPdWY2Pj1atXzc3Nab+io6Pj5eX19OlTthAMmoaGhgsXLlCPUEJCYvPmzfHx8d0vJoQhcOXKlR9++GHmzJncv3V1dbQ5TJw48ebNm/9QDgTBw4cPKVmJiYlRD4Ze0F96TS++dYE9CJn09HQKSLRF/62TgoICLsaGPiksLKSOkIGBATUd1Ck6cuQINSO9+b37xYsXsrKylMzZEQCd94y4c+dOcHDwvn37FixYQF0+RUXF1atXHzhwICoqqqSkpDfrGMCwQ8D+DtrUIyMjDQ0NaSOndBceHv7mzRu2EAya5uZmynVr166l+jc2Nr58+TJ6gcOCNgTqgo8aNWrr1q3076VLl+hfBwcHPIVLcFG+op6xjIwM5StpaenRo0draGiwhUC41NXV2dvby8nJ0eL+6aefuHRNfvzxR9rNsaW/gVqDysrK0tLS7E5Xr16N7HTmzBnXbo79ztGjR7u/5nx1bJfuH0ifz30RfSP31TQNNCU0PewkwhBqaWnJyspycXGZN28eNSkrVqzw8fGhIMSW64aWLK1yuDYBeuPFixc3btzw8vLatGnTrFmzRo4cSX83b95Mq1lSUlJ1dTX7BgA+gID9dZ8/f6YsZ2RkRHuLNWvWXLx4sa8nQcFAtLW1JScnm5mZUa42MDCIiIjATeOGl6Wl5eTJk3/44QdfX19aIpqamoWFhWwhECiJiYkUsZSUlCQlJSlgjxgxIjU1lS0EwqKmpsbZ2XnUqFEUp8eMGaOurq6trb1gwQIKRdRbVVZW/vnnn93d3fPz89PS0ijEenp6chGXi8FHOh3uRP1ayroxMTGpnegtDzs9efKEGuoPg4M+mT6f+6KCggLuq2kaaEpoergJ4yaye26nuaB5oTmiiaQo3t7eztYL8BQtpri4uH379k2ZMkVGRsbExCQ8PPz3F11TJpeTk6NV8cCBAx0dHczYoVdXV0erR1FRUVZWVkZGxvnz5891CgwM5FaqrpW/i0tfMO/t+sygoCDui2gtzczMpG8vKSmhKcF50T1obW2lWrpw4YK9vf3y5ctlZWVp/0XdEvo3Kirq/v37A9/MBbfDT1vT69evKyoq7t69S2syNZLcCnb27NmudvLwN9beQ4cOsYO6+dbYrs+kz6dv4b6Ovpe+naaBpoSmh51K0YCAzcrLy9uzZ4+UlNSKFSuoyfuAn8aHVk5OjpWVFbWYCxcuDAkJwZW9/IA2CtqBUWeIeueKiorUjOIpXMKBNrSuY5i0ZNnRIHTq6+spbfr7+1taWq5Zs2bx4sUaGhpqamoKCgpiYmIjR47knqbz4MEDCuRsxhVANBcUyGmOrl27RlGcgjfXKezK4aGhoYmJidRfp5phKwsGhjrW1IkyNzdXUlJSVVW1sLCIiYmhKMuNTU5O/umnn2itMzIyGqQLvhobGynb//rrr/Hx8dTpd3V17Z4uDnU62Mnb25vWBIpnSZ1ofbjfieIBu0rx1LNnz7gvomzPffWlS5doSry8vLgJ4yaye5I5ceIEzQuVpM4Szd0gVZ1gqa2tpdWJFuLGjRtnzJhBHRUtLa29e/dSH7KgoKC5uZl9w/c0NTU5ODj8/oehYUTzWF5eTk3ZlStXwsLCuodkbj2hv87OzvSX2nBahagYrSQpKSncCkZevnzJrn88RZ/f9V30vfTtNA00JTQ9XdPGTWfXlNNc0LxQMZovmjuaR3a2BZlIBOzenEBCjb6vr++0adOmTJni6enZ7ztkQpfeVHuXJ0+eUF9n4sSJ06dPd3d3r6ysZEvAMKEsTXssKSkpLoZJSkrOmzfP1tb26tWr1IziaiiB5ufnx12F+/PPPwcHB7OjQWC1t7c/fvyYujiUpbnjzy6diYL6oNHR0bdu3aIml+0fdXr16hU7SKhRPVBtUJ34+PhwSYbL3lRvVHtUhwM/GgakrKwsKCjI0NCQErWGhoajo+PNmzd1dHSo8fnll1/U1dX7/QMHdespalIfnbpwXOrgQil16N3c3Kh/T+k6Ozub9lbv3r1jF78AohBC85Kenn7t2jWaO1pXaU67h/BTp07FxcUVFhYKWVzpvU+fPt29e5fqYffu3ZqamrSCzZo1y9zcnJIebey9PB2S1lgZGRn6hCE7nNDS0vL06VOKmhERESdOnODW5K5oSk33mTNnuB9WaNrY1UJg0bzQHNF80dzRPHaP4lQDVA9UG1QnVDMC91uS8Ads2pzCw8PZod3k5+dv375dQkJi27ZttJjZ0dAv3612Du3wqFtPgU1BQcHOzq6oqIgtAcPt5MmT3Y9zMn766ScDAwMPDw/cS18Q0R6LOh9/6zxnWOD2XtCFe9gstaVdAYP+njt3Lisri7tEGfqK6o1qj+rw/w61dEYXqmGq51520OGr2tvbqQ4p+urq6lLjM2LECG4/Qn2Ang8YUmoqLi6OjY318vLqitDUEQ8MDKSB1Hl78eIFuxRF0uPHj6kDFhUV5ePjw2VvDsVLijHl5eWi9kBTSsglJSXnz5+3sbHR0dEZO3bs5MmT169fT32blJQU6oWyb/i7yMjIv3XeoCQzM5MdNzC1tbW0xtLnHz16lDtVgZbUkSNHQkNDaRkVFha+efOGXa4iieqBaoPqhGqG6oerK0L1RrVHdcjPvyIJecC+du2alJTUV38ZbW1tpQZozpw5kyZNomao67QlGDhq3KlJ+mq1c6grT3tEIyMjCQkJU1PT1NRUHCXoUlVVRf0MajioTY+OjuYuaHF3d2cuA+vq9vVS1xsP//0CMPpM7sPpW+i7uPPNmHM3aMioUaOoDyQjIzN16lQ9PT1LS0vupMqCggKRvbRGmNACpT6Evb09OwL4FbWWpaWltNly7QD1Njw9PWln962D0sArVMNUz1TbBzvPcqT6p6VAy0LUEsvA0U5/Uqeff/656+faMWPG5OXlcQXevn2bnp7u7+9PydDJyYnix/Hjxy9dunTnzh3aSbELBnrh2bNnVKXh4eHOnbiDhBERERRgRO3esWVlZTExMQ4ODvr6+pKSkkpKStQdpc05Li6O+ZVn27Zt1P/56aef1q5d+6FfV4x2dHRQu3H9+nXqcXE1T+uzt7c39YGpEyUcZ1UMPao3qj2qQ6pJrn0gVMO0BKm2+eG2Dr8Jd8BOSEigttvc3JwZXltb6+bmpqioaGBgQDmBT5aE0OCeprt69Wp2RKfbt29bWFhISUlRuxYZGSlq96CmRJqbm0tNAMXao0ePds/J3LlABzt/j6cES81xUlLSvXv3uAtaBuPnTPpM7sPpW+i76Bvpe+nbucngDoI5Ojpy/UiaWppmmnKafuRqYUId2dGjR+NmB3zu8ePH1BWmDZM6hfT34sWLd+/eff/+PbtVwxCi+qelQMuCayGPHTtGHb4XL16wCw+6ofoxNjamxMKdOzN27FiKNyoqKvLy8jSQwoyZmRn1lanfTHslSjtspQNPUbqOioo6cuQIF7npxbVr1169esUuNqFG62R8fDzNO8XscePGSUhILF682NbW9vz583l5eWpqaiNHjvzhhx9oXaW6Yt/8Ow0NDRkZGSdPnuSCH/0NCQmhjnF1dTVb+8BTVMNUz1TbXTVPS4GWxXCdcyS0ATs5OZnS9Y8//kiJrmtgSUnJjh07aOPZs2fPw4cPuxUH3qCVm6qXWqLu1f5bZ++QGq8JEybMmjWLdpzCfYl7R0cHd/VjQEAAl5w5tPcKCgqivRfVEsXa+vp6tnngYzS1NM005TT9NBdcAufQPNKc0hZHc42fq4YL7UIqKipKS0szMzMTEhK4cxOox9/9zIWuX3MYW7duZQf9Xfe306dxH0ufT99C30Xd3+HadQm91tbWO3fueHh4cKGaNrqcnBwkaj5HcSU8PJzbXry8vCh+4+B2F1ql3d3dR48eLSkpSYlaXV19wYIFixYtWrFixcaNG0+cOJGdnc1WKAytd+/eUefNz8/P0dGRWh43Nzfas/dwNqJQovlNT0+nSjAzM5s9ezal6zFjxnAnWYwaNUpHR4c5yt3U1ESNs6+vL5frXF1dKa4P9h3FoDdoKdCyoCXC5W1aprm5uUN2voZwBuybN2+OGDGCNolp06b91nlCXVxc3JIlS8aNG0f7PFFrLIYMl66p5sePH88NefPmDUWvOXPmKCkpUR+x5wdjCihanahbQLPJRWhuM6Y+FjXQz549Yzd3IdX93LOuA+BUJ1Qz2Nx4orGxsaysLCUlhfJt96jc9dsN9VxDQ0MvXryYlJTE3dGH1NXVsYtqAOjTuI+lz6dvoe+ib6Tv7fq1pXsmp+mkqaVpFrWzVAbo3r17lDT2799/4MCBy5cvi9otx4TJ69evY2Njjx49St07f39/odz99QlVyJUrV6g2KLzRniIiIqKoqIitNeAn1dXVqampHh4e1Kuhtp1apJqaGna5Ci9KYtu3b1dUVBw9enTXhQzcoexrnbhfP48cORITEzPYN5yHgaNlREuKu5abGqLk5ORBfR7bUATsqqqqwsLChISEsLAw7namnK4DI91xo7jnZ1B5ehe9t08HPDMyMkaOHEmbAXc/6pMnT1Le09HRoZZ9yG4GOGRojiorK+/evcs97I56Zr+v266+eFfftwtXmLsWlz6BPoc+rX+1ROlaXFz8559/lpSU9PT0pH2nvr4+5W1qnmiJCNOv+KWlpefPn+dSDe11aGbj4+PRtv4e1QnVDNUP1RKXwajeqPbYCoV/9PTpU2r3AwMDXTovr+UcP36cNtKbN29SvuX/w5g0hTSdNLU0zTTlXXNBc0TzRXNH88jOtgij6rpw4QJtJhSq6QVOixU+r169ioqKokVMzSB1RUTqV6e8vDzqmdjb29PqTb1b/GYkuAoKCoKCgrheZWxs7KCGk2FXVlY2ZcqUn3766W+dN+GjjK2urr5hwwbq09rY2FDPOSUlpba2lq0jEBB1dXXZ2dnUQaU2+dixY5SAeH6fV94HbOpV04bHnZro0nmA5dSpU9Sq/vrrr48ePWJnsUdUnt5F76VP4A6PHO48TfHatWv0LewXd8rKyuLSNaEXo0aNWr16dXFxMVtOADU0NNy7d48iClexXN0e6bzr4NWrV9PT06lH27+tveupD/Q53J36uh+Mom+k7+35RFBK12JiYj/++OPfOu9TQtauXUurwefPn9miAqiqqopWOaoK7vwfqpDCwkK2EqEXqN6o9riD/FSfVKt9+u1MKD1+/JjqwdXV9eDfT38ICQlJS0sT1tMfaL5o7rqukqKmhuadaoDqga0aYVddXU27Nmtra2ppaU/H1hQIKdqfenl5UU/mzJkzwno8sLGxMSoqys7OjnI1vXj9+jVbCyDgqMlyc3Oj/Tg15sJ334HIyMixY8cqKiquWLHC3d39xIkT1FDTPispKent27dsXYCAo2VKS5Y7uBsREdHDjeX7hAcBm3voAu0wuINUlNBycnJ4e2pid/TJ9Pn0LdwhRPpe+nbuHtTZ2dmUqLtO5CD0r5SUlKqqakBAgMCdqkoTfOPGDWrCuANZtJFfuXKlpKSErZFBRt9I38tdCkhTQtNDU9W9MildU0vEPU2XjB8/Xl1dXU1NLTU1tdvcCJja2tro6GgKAI6Ojr6+vnfu3Bm8VVo0UX1SrVLdcqcLUm3z8+MWeKiiouLy5cuHOm+NS6gpu337dv9+GhMONO9UA1QPXIVQzVD9fOsnVCHw8ePHs2fP2tra0s7r/v37bHWAyHj06JG3tze1fhRBhePH6IaGhnPnzh04cIC6qunp6ewMgzCitvrUqVMHO59lUFlZya4TAujVq1eUMp49e+bn50crM3V6cUxFdDx8+NDHx4fWZ4qNA/wBtP8B+9OnT7RX4A65UAAbrtN+6Hvp22katmzZ0nXs+qsobJuZmVGfnp0TfvL+/XvqXHK1Sq1VRkbGYNw+eiBoemiquPN+aTqpj/jLL7/8/PPPlLHHjBnD3Rf0b523Bv3pp5+MjIwE66dNWj1cXV2pST158mRubi478zBoqLapzilsU/3z+UbaD5Sj/P39aZOhGeTuVsXOP3RD9UO1RHVFNUY7Oao9tkIFU15eHrUtDg4OWAGgO+q+e3h4UNOXn5/PrjSC4MuXL4mJidbW1ocOHaJZYGcPRMPLly8paXMPKBbciyCam5svXLhgaWlJubqvZ92CMCkvL/fz8zt27NjVq1f7d/Z4fwL2zZs3nTpveED9YHaKhhVND00VTVtaWho70fytoqKCSxfHjx8XrL4XTS1NMzVGNjY24Z2ol7Bly5bFixdPnjxZRkZm9OjR7u7ura2t7Dzzjfb29pSUlIOdF1RfuXKlpqaGnUkYQlT/3E9mtERouQjuA9Lr6+u7zoc/e/bs06dP2VmFXqB6o9rj1oeIiIj379+zFc332traLl++bGVldenSJZxeCN/y7t27qKioAwcOxMXFsesQv6qtrfXy8qJpTkhI4P97Q8DQKCkp4a4SpYjCrjF87NmzZ0c6H1eWlZXFzhKIMIo5tGLQKv3y5Ut2pelRHwI2JfjQ0FBbW9vr16/zc0tK00ZTSNNJU9u/Xx2GDE1qcHAw7ZwCAwMF/S5ZNP00FzQvNEdMJ/j169f8+ZRdav25O5omJyez8wN8gJYLd0xbgPbTVVVVtAlwP5YVFBSwswQDQPVJtUp1SzUsEFfvU7Q+e/bsnj17UlJS2JkB+Ibbt29Tfy46Opqff16kNOLg4EAhCj8dwlfV1taGhYVRLCkuLubz53cWFRXt27fP09MTNwuAb3nz5g1lHO68BnYF+oZeBWxq5blrxu7du8d+Jx+jqaVpPnfuHB/upWgJcXcRE75r8GiOuFnr/Vo49OLi4uzt7UNDQ/ntDHz4PVpGtKRoecXHx7MLkm9wzwI8cOCAl5cXzisbbFTD3HEzqnM+bN45SUlJNjY2/HaeFwiK3NxcWn+Sk5PZFWu4UQg5dOiQj49PdXU1O9EA/4h7RAK11fx5pU95ebmDg0NwcDDOLYLeqKurCw8Pd3R07M1tWb8fsIuLi3fv3n3r1i32ewQETTlNP/88gvL58+fU1vj7+wt3tKO5o3mktZCvbnrx5cuX6Ohoqv/U1FR2iv/Rr7/+Wlpayg798CE9PZ22K3rh4uLi5+fHjh6Y7p85GJ/fHW3XaZ2ys7NpTofrnJQ+zSYtNVp2tAT56qlvHz9+pL6mk5MTbuoz9KjOqeap/vnqgTEUPOzs7Cj8s5P7j3puZPq0afTeUDYyHzq719TIDP29OflfLyuf1iJal2h/yq5kw6Gtre3kyZOUrquqqtgJ/R1uF8P82sg9RKCvh2rc3Ny8vLy410y9xcbGmpiY6OvrFxUV9bJKew9rL69QLAkMDDx27Bj/NNTNzc2HDx92dXXtZbSura2ljTEgICAqKurBgwfs6EE28HYbKzMP0TpDi8Dd3b3nm1P2FLA7Ojpok6B2rZf3T6b2NC8vjx3aL/1bgb6Fpp/mIigoaHhPU2ltbfX09Dxx4kQvozUP63O40JzS/NJc9+/Z2rxVUFBgbW3dywNKK1eulJeXZwYmJCT84Q9/4HLU0qVLzc3NmQIDNH/+/I0bN3KvB+Pzu6MZ/NOf/vTXv/71v//7v//4xz/+13/9l5GREffbQc82bNhAKbfnIb3Xj9mkJUjLsbCwkF3AQ66xsdHb25t20r0/ZN39dw0+f9xxz/HvQy9a6e8W4BWqf1oKtCz44c46SUlJlEB608j33Mj0Y9PojaFsZEhMTAzNjoSEBDtiCA2kgeIhZjJ6X/m0LtEaNeyHssvLy6nhvXv3Ljt930CrNy16bW3t7gMNDQ1poLq6eveB30X5md7Ive5eb9SK/vnPf967dy91M548edL7Ku2lYV97+XPV7TdaRra2trm5uey6NeSoN2hlZdX7tHn+/PkffvjhL3/5i4qKiqysLK11urq6Q3lYonu73f117w37yvyBdyvSAPFqMqjjQeszrUvs6vV33wzY7e3tTp3PfGM/8tuoPZ06dSo7tF943lASmheao+E6n5BaFtoNFBUVsZP1bTysz/7h1VpIc03z/vTpU7ZShkpLS4ubm9uZM2fYKfu2uLg4aoxo/9194Jo1a6ht7T6Et/rXbvZP97Wrpqbm8uXL0tLSI0eO/O7jl+fMmbNly5aehwwBWpq0TIfxJgupqan29va9+Umiu67fNf7zP/+TVrCZM2f2PpwPRD+25Z7j34detNLdC/RjAvqKlgUtkZs3b7KLaqh0dHSEhIRQV4ydsm8Q+kbmQ+c6QO3MP//zPycmJrLjhsqwNFC/N8DJoPWK1i52nRsqtPg8PP4/9t47LqosW/++M3emJ/3mzsztCd1mgoCgiCiYWwRzo9LmgIKxUducJRoQESRIEEEBAQNRVKIoIggKIoKAghgxYEQKAwak3+dy3q5P9YY6FkVRVMH6/sGnOHHvtddeez0n7OP56tUrtljiQQDR0tL66quvhEHyyZMnkCja2trNEdii7N69u0U7S6t7bzN9RlbIthj79++PiIhoxdtdyHZ8fX3ZYoknPj4ePrBs2TLhZdMbN25MnTr15cuXv96wBWm+wG51ZxbI2pGkRrbFgC/Bo1gnq6dxgf358+cdO3Y0dTrrVheEXwQ1Qr3k37Hz8vIcHBya2htb3Z4y9ELUHRZolW+Q4OybN28uKytjy/QlVFVVRatfUVGB5GDXrl3cv3AkHx8f7vfFixcRbXV1dQ0MDMzNzTnJtGrVqvDwcOHuzs7OSFC431ApaNy+ffv2799/+fLl5eXl3HLRuCk8fm5u7qRfs2XLFp7l4g7O0NC7UOw///nPq1evFi5BAbBNz549Z8yYwX18BZr222+/VVdX585YUlLScEmjO3LY2toeOHBgz549KBuEhODXZmwq3B0V/GCbvIWpra1FYnfixAm2QBIgavbs7OxvvvnGzMzs15u0CFL0ZdnKPykKIB1oFxcXl1a5kBoYGPjFx8IZeILMFyOMQHyQ4QkCkgeZRhfyH5wBq/74xz9GR0dDUFlYWIiu4kIBatqvXz8cRzQI8KwSV19B/V4HDx7Ev4aGhoMHDxbu1TBA8ZSfOwgCFOw8cOBAnKuqqsrJyQkbGxkZxcXFCbeEQoBL9+rVC/03PT2dOYIkxZAi9MG74GOs27U8p06dOnz4MFuaLwEjo92HDRvm6OjILfHz84MPQy2LCuxGBwuYHfbR19dHK2AvUYEttBvaBbHo73//O+zJdSLGpFFRUWPHjsU23333HezPLeRpfQZx3svjnzyrFMd1BWK8V/JicMsbbTgJgVXhUfJPxcGxY8fgGGyBeEFrwm/F3a8W1yji7MnRqHMKxDSNQIzAFnfqhohzZgGv0/KsUhx/FmcxyYshaJ4zC+pbE37Fupo4gX306FHUnD3Gl2iYsnOIK/qrV6+2bt3ap08fLoa6uroKW0g0UIozk3SgXqgdW+GW5M6dO9LduhFnT4FUJhW3l7h+0qgXNhOU7e7du6yBWhIYxNraWpIXxhoCx/vnP/8pfD9n3759X331lXDGVGGMe/bs2b/+9a8FCxagz0dGRm7YsIF7wQx23r59+y8HE8CGwhRh586d8PDY2NgjR44MGDBg0KBB3PJGYyjOGPgLvr6+f/vb39B8PMvFHZyhUe9CIYU3LeEJf/rTnxDREJTHjRv39ddf37t3Ly0tTU9PD+EspJ5Hjx41XNLojtwxkWx16NABVQsODoatBNJeixWClrWxsUErsw3fYnz48MHe3r6wsJAtimQwZl+xYsV//vMfwS8jmeilB0HTRw6BmD7esC/zDGyi8Mg/gQQKULhBwwIImpIcNBW0joODg5yfbjh9+jSGWLYoX4InyHwxwgjEBxmeICB5kGl0If/BGeDP33zzTWVlJdwVniM6JxZCATx/4sSJ3Iepfv/738P/v7hKXH25vTp27Dh58mSM7+ihv/3tb0+ePInlDQMUT/m5AAW3RFMuW7bsd7/7HToj8lH8C/v/+c9/vn37tqC+l/3lL39B2XCKTZs2IdwJJ6mRvBjShT6UJCUlhXW+liQ3NxfNx5ZDAjiB7e/vL7wkh9CE0UFUYIsbLGBbOAziBmIg9oI/CBtaaLczZ87gUN26dYM9sbvoKrB37154ztq1a0+cOIHyI8/hlvO0PoM47+XxT55VCuK6AvHeK3kxBOIbTnIOHTqUJvfv6WZmZgYFBbFF4QUp629+8xvhqNcQcY0izp4C8c4prmkEYuK2uFM3RJwzC3idlmeVgvgzj8UkL0bznRnAr3Bqxt8aEdhVVVUoDbu3BDSasvMUHebAmI00Eep/xIgRjcZQgXgzSQ1XO7baLUNdXR3yoabeu+Zo1J4CaU0qbi9x/aShFwq3kRrYYePGjfK8bIne+/DhQ7YcknHjxg04m/DKPdpiwoQJwrVCF4WM+a//+q+Gk16IMywDsljsfvnyZYGYGCoEHRMHQbLC1EjccsGvD87QqHetWbPmf//3fwX1LfX3v/9dWH7827lzZ3iyoLFbkaJLeHYU1PdlLS0t0SvBDavZVFBrR0dHtuFbDPQjKZ6GEMKYHVoUIlbwy3AieulBipFDXB9v2Jd5BjZReOSfQAIFKNygYQEETUkOpABttHv3brbxWoyamhrYii2EBPAEmS9GGIFkQYYJAlIEmUYXcvBEGNCnT58VK1YI6t8i/p//+R/RF/Lhw5BGwkeOV65cKXw5kGcVT32xF3xMGFsg4YRVaxiyhDDlx0H69u3L/cah0CUHDx7M/Yvc9B//+EdgYCBiGjoFvItbDmbPnj1lyhTut+TFaGh8CbGzs+OfWUeGfPz4UbpsUPCLwEYq/9e//jUjI+PatWt/+MMfYHChwBY3WCDgYLmrqyu3HF4H52k0OXRwcIC1ud+iq3AENBb3wAUP0nkvj3/yrFIE1xXUG1mc90peDHENJ9xAQhAz3717x/pci/HhwwcbGxu2EF/iwoULsLOEF09FG0WcPcU5J0/TCL4UtwUN/IFBnDMLeJ2WZ5Ui+DO/xSQshqycGcC7EDBFXa4RgY0EqKlzPHI0TNl5io6c7P/9v/+3d+9ebhWiMNLBRmMoj5mkA7ULDQ1lq90yJCYmNuk9dlEa2lMgrUl59uLpJzydQWpgjaSkJNZMLUNmZibzZFRTgbNBqAjqXyP/zW9+ExERIVwldFEYU1tbu0uXLog+J06cEKoRHsPevn0bUnbo0KHIWXv06IEjc88s8cdQ7PLNN980/K4bs1zcwRka9S5U4d///rfgl5z+4sWLwlVz5szhpqtp6BWiS3h2FNT3Zcgw4SpBY9WUgvj4eLQ12/wtwJUrVyR/w7ZRZtW/2IwugDIjUf7d7363ceNGQb1lRC89SDFy8PRxQWOtJoRnYOaRfwIJFKBo4/IUQMBbBqlBSoT2YpuwZcC5pJ6QUlyQ+WKEEYgPMjxBQIogI12EQRBAmwqvCllYWIgGHPiw6JOKsbGxOA53X4Vnlbj6Cur3EnUwxJnx48dzvxnf4yk/cxBDQ0PhzSWA7Xfu3MnVa/78+Zs2bULnRRczNjYW3qSVvBgNjS8h8LTw8HDWBVsGGF/qXskJbEH9xGZWVlawFWcKocAWN1ggQ8Ny0Q4FCzeaHIoT2PA6Ud8Thaf1ReHxXh7/5FmlCK4r+KVejXqv5MUQ13DCfyUkJyen0QdrW4jIyMimvvcq+MWXeGbwEdco4uwpzjl5mkYgJm6LOzUDjzMLeJ2WZ5Ui+DO/xSQshqycWVDvz/AxUZdrRGALX5hpKg1Tdp6iI2pjlaiSHzlyZKMxlMdMUiO3W15OTk7suSWmoT0F0pqUZy+efsKfE0vNrl27WDO1DG5ubhJOgC+O4OBgSKBbt26h93777beiRxN10cePH3t4eJiamv71r3/t1q1bQUGBoIFhf/jhB6Fh9fX1R40adfz4cYQ89Mnf//73nIZpNIZy+Pj4/OlPf0pLSxMuEbdc3MEZGvUu5D39+/cX1M/OCofhKsKxePFixEFBY14huoRnR0F9XxaNkoIG1ZSOV69eoa3Z5m8B9uzZ81Kqp1GEwOxfffVVhw4doJcGDhzo7OzMHXDYry89SDFy8PRxQYNW4xnYGMTJP4EECpBfYEteBulAqdBebBO2DFIPmgLxQeaLEUYgPsjwBIGmBpmGC3kOLsrSpUv/+7//e8AvqKmpoYnz8/O5tfBhiC7hxqdPn4b3cjMs8qwSV19Bg9iCeqF23G/G93jKzxwExUYHFP7LnT01NRXlgas7iCB8i1LyYjQn9CG5ZF2wZdi9e3d1dTV7eskQCuykpKSvv/66c+fO3NVJocAWN1hwy0Wv8iC+NZocihPY586dwxFE354TwtP6ovB4L49/8qxSBNcV1H/qUpz3Sl4McQ0n/FdyduzYwfpci8FdYmgqiL3wBJ7nOMQ1ijh7inNOnqYRiInb4k7NwOPMAl6n5VmlCP7MbzEJiyFDZxbUTwwh6nItK7B5is5dxRF9lRFpXKMxlMdMUiM3gc3z5sYXaWhPgbQm5dmLp580zIllgtwEtouLC3vuJvLs2bN//OMfGAOQHIjO/iUQkx4hFmtoaKDDC+pv961bt064qk+fPpxhb968ibYQfuwEP/AvF1YajaGC+k99/uEPfzhy5Aj3r5CGy3kOztDQu86fP48ozF0SevToEUKw6JEHDx7MXctEwX788UfhcmYJz46CBn1ZIMaMTQUpINqabf4WQPSWsnQ0NDsHYxkpRg6ePi5o0Jd5BjYGcfJPIIECFN2gYTCRvAxSIx+v+Ll5F1LFBZlGu4ZohBGICTL8QaBJQabhQv6DC3nx4sU///nPOXPm+IrQpUuX9evXcxsMq0e4vaen5//8z/98cVWj9eV+N9opuN+iAYq//JJkdffu3fvtb38r7o6WhMXg/m3YvhLCpHEth/A5bSkQCmyAnP5f//oXdzFRKLDFDRYPHz7Ecu61ag51dfVGk0MHMQL7/v37aCPELuEqDv7WF8LvvTz+ybNKEVwXP3i8V8JiCMQ3nPBfyZHbpaKfmxGlMXh16tQJgVp0IfcvT6OIs6c45+RpGkFjcZvn1KLwO7OA12l5VimCP/NbTMJiyNCZBQ3UTSMCW7rLPILGckeeoldUVCBvCwkJ4ZYjb4MHNxpDecwkNXLr1c7Ozuy5JaahPQXSmpRnL55+wkRVWSG3dyPd3d2Fj9FKDVQK90UlYSDgELpoUVFRTEwM95oKOryKigo3p93y5cuRFty9exdl2Lt3L7QrZ9gnT55AS6Bsgvq3y4yNjdE0PAIb5/3b3/7WsFc2upzn4Ayz6ueXunr1Ko6TnJxsbW2NasIZhKPIlClTEMW42aoCAgJwHKg+/Laysurfv39ZWRlyfc68zBJxOwoa9GVB87JMUVBltvlbgOY/E9FopxY0sIwUIwdPHxc0ZWBjECf/BGLaTlQBMv4sGkyaVAbpkNtzDT83Y9DkaDTIfDHCCMQEGf4gIHmQaXQh/8GFhIWFwYGZtwY2btzYsWNHriLwYZSW2/H69euolPCLbjyrGq2vcK+GnYL7LRqgMErylF+SrA4/ZsyY0a1bN+Ejlzk5OcJvCkhYDJS/0e4jIXIT2Bis37x5w55eMkQF9ot6uN+ik5yJGyzMzMwwPEGKCOqnloAvNZocihPYYOrUqfCcS5cuCeofZuFm7ZWJ9/L4J88qBXFdgXjvlbAY3KAvruGaitzudf3cDIGNSAhhOWrUKO4Jc7hTbGysrq4ufvB4FI89G3VOgfimETQWt3lOLQq/Mwt4nZZnlYL4M4/FJCwGf8raVL4ssJGiSfc6GeKpvr7+ZRHQqDxFt7S0RIOlpKSg5VDhP//5z43GUB4zSQdqJ7eJxM+ePSv1R+cataeAN7TxmFTcXjz9pGFUbT4oG2zCmqlluHjxYlO/mtOQjIwMJL7o3sxyoYuib//73//+6quvELD+8Ic/mJqacu+owG4w+O9+97u//OUvEyZMEH3IzcXFBdv/5z//wSoMMGgmLqw0jKGC+gkn/+vXcApN3HJxB2eAd3F7ocW//vrroUOHItKJPv9869YtHBChGUk2N3UWt7ygoADWwJL/+uWlWWaJuB0FDfqyQIxIayqJiYloa7b5W4CrV6+KTrkvBRIKbIFUI4e4Pi5oysDWkEbln0ACBSjauEwwkTA5aA4RERFX5fVdwMjISK4vSEejQeaLEUYgPsjwBAHJg0yjC/kPLmTMmDHfffcds5C7jAJXEdT7MIrau3dvBB/ECsQf4QxqPKvE1Zfbq9FOIWgQoHjKL2FWhx5kbm6OYvzjH//A7vjr4eHBbSN5MaQOfdg3KiqKdcGWATFHuhl5BL8W2KKICmxxg0VJSUmvXr0QIv7+97/DpE19RFxQf1Phhx9+QFSBF6G5hS/L8LS+EH7v5fFPnlUK4roC8d4reTEE4huuSWBQk5snA7RddnY2WwjJgBiGfVDfP/7xj0iZ0ATCq5ziGoXHnuKcU1zTCMTEbXGnFoXfmQW8TsuzSkH8mcdikhdDJs4sqP/wKkwq6nKNCOyamhopptoTiKTsQhBGeYqOTGvmzJmwLIwCQyBvgNjjVok6E4+ZpMPW1hZ1ZKvdYlhbWzPPlkhIo/YU8IY2HpOK24unnzSMqs3k+fPnsAZroJYE1ZTuG11N5caNG8iDmcn9ISRgw4bTkoEHDx5AEwqjlWyR4cG5egkTesmResemglPI7X7Oz/U3sctkN4u4ECbKCaQaOcT1cUGDvswzsDWkUfknkEABiobxhsGkSWVoKjCF3G5fg+ZMtiwhjUYYgfggI8Mg0JDmH1zow9BvKL+EqwTi69skml9+QX2WjBYpKipq5lMtTQWexsxV23J8+vQJIlbqm9gS0uhggYbOzc29du2a6MKmcvfuXRyZu+YopJmtz+OfPKsEiuS6Ahl5b6MNJzlIxeXmyT/XR2k7Ozu2EE3h/v37qG9paSmzXLpGadQ5BU1sGulOLQqP0/KsEiiSPzfJYuJopjMLGovMjQjsn+vnvpbtfDNfLDrs0rVrV+6GRouCesltFmsOJMqII81p+EaRzqSN7iWTfvJFUB7YAdZgDdSSCOovcj9+/JgtDdEmgDuhfQXy+urez/UZJ4Sr1Hd1mooUI0ejfbwhMhnYRBGnAHmQeRk40DpoI7QU23gtyYULF2R4gaDN0/CKkhCeVQR8TD5fTBCC3CAwMFDqqc7aHjz+ybOKYIBT5eTksN7WwuTm5jb1O9htHh6n5VlFMMCv4F2MvzUusIG/vz9kNnsMmZKRkeHl5YUE6+zZs9OmTfv666+Rb7EbyRTUCPViq9ry3L17d8uWLY9k8SlpfuRvUglB3a2trWEH1jQtz7t377Zu3cq8gkK0AUpKStCy8vyQphCEkbCwMFm9N0HICrQI2qVVgjyIiIiIjY1ly0Q0hpmZmbgvh/OsaufAu+BjrNu1PCkpKehWr1+/ZgvULuHxT55VhCiHDx8+deoU62dyISEhga6EisLjtDyrCFGOHDkCv2JdjUdgg0OHDgUEBLBHkh3Z2dnGxsbdunXr3r37pEmTGk5bL1tQF9SIraS8ENRP59DS6ZecTSohJ06ccKyfmp41iryora0NDg7et2+f5LcBCUUG7ejn54c2RcuyjS0vIO8dHByyGnzNkmgtLl68iBZBu7BNJUdiYmLoDgnREsCvjh8/zjqcvECg27NnD11SJJoJxm4PD48zZ86wHiZH0tLS3N3dKRskmg/nz/Ao1snq4RPYICcnx9rauqUfHm5pUH7UQv6PozQEzWBnZ5eRkcEWsY2CmqK+4pxPzlRUVDg5OUVERHCzMRHKCNouMjKSe7WebWC5U1dXl5iY6OjoGB8fzxaUkCOw/86dO9EWaBG2keROQUHBtm3b7ty5w5aSIKQCvgSPgl+xriZfEHK3b99+6dIlelyckI6srCyk4vBn1rfkTnl5uYODg3TTORMEx5UrV+BF8CXWvX7hCwIbfPjwwcvLy8XFhfu8uHKBMqPkKD9qwVaslUAKeOLECXt7++PHj4tO2tyWQL1QO9QRNVWElFeUGzduODs7BwQEfPElVUKhePr0KVoNbYcWZBu1tbl48eKuXbu8vb1LSkrYchMtRmlpKWwOy1+UyxzyklNTU+Pu7h4cHNxWIzwhH+A/8CL4kjynZeUnNjZ29+7dt2/fZstKEOKBCNm2bVtQUNDnz59Zl2olkJoePXoUAoH7GhxBSA58Bp4D/+EXOF8W2ByVlZWI8k5OTspyyQflRGm550DYyigGeXl5O3fuhGBoSze0L1y4gBqhXqgdW2FFoqKiwtPTE6l5SkoKPfamyKB1zpw5A6dCeynCXWseUNrQ0FCEnX379hUXF7M1IWQEbAsLw87cd8LZZlAYbt26hUgYFRVFj8wQTQXS+tixYzt27IAXsY7V2nz48CEwMNDDw6M531Mg2glwkt27d2P4xlDOepICUF1djdHEy8tLGe8gEvKnpKQE/uzt7Q3PYZ2pAZIKbI73799HRERs27YNHtlwcvlW59mzZygVyrZ9+3aUE6VlK6B4oJDcU6YYSo8fP650810/f/4cZUbJUX7uKU2lMLuQzMxMiDd0mNTUVLrdpDhUVlaiRdAuaB05z5rbfF68eBEeHg4FuGvXroSEBKXr1AoIbAhLwp6wKmwLC7NGV1RKS0v37t0bGhoq3ccaifbGkydPfH19ra2tCwsLWWdSJD5+/BgbG+vm5nb27Fl6aJxoyOXLl7du3erh4aGwd7mE1NTUHDlyZM+ePRcvXmSrQRD1ZGVl2draQmAKJL6s3zSBLaSiouLAgQOQhS4uLsiDke6wZZEjODvKgNxLTU3t+++/P3/+PFtcZaCuri4vL8/LywtWhVKNiIhQwEsYQlC2yMjI7du3q6qqGhkZ+fj4KJeuZkCukJGRAWdG+h4SEnLr1i22woRcgOVhf7SCq6srWkSeH8lsCVB+JBne3t6oETp1dHR0w09oEuKArWJiYmA3WA82hCWV1x8wYrq7uyOBy8/PZ+tJEPXk5ORgDIKT3Lt3j3UgBSYzMxPhGjkABTdCUD9lgK+vL5JDjHfKFbE/f/6cmJi4e/duqJsmfW+SaMMgrHG6LD4+vqmz6kopsIXU1NSkpaUhvO6sJzw8HGlQS98JxPFxFpyLOynOjjKgJFgOQ+jr60+YMOHkyZNy/g6qbCkuLobS2LVrF6e30eHPnTvXWi8+4bw4O8rAGRylQtlQwp/rH4s9cuTI5MmTtbS01q5dm5WVxdZE2UBgDQ4ORh1R00OHDl27do01ByFTYGHYmfMrWF65kkvJqaurKyoqCg0N5VwLojEqKiovL4+eH+aAHWAN5GTcxQhnZ2fYChbjf8dJuUC6mZCQ4OnpefDgwdYK5oSiUVZWBpewsbGB8yvvdWokYMePH3dzc9u3b5+yT4tLSMGjR48OHz5sb2/v4eHBM+2TUoDBCGmti4tLUFAQPTrePrlz505gYODWrVv9/PyePHnCuohkNFdgM5SUlEDZQvFyz/Jxdx6QR545cwYx9+nTp2wleMH22Av74gjcXSDuqUscH2cR9zmW2tra+Pj4SZMm6enpoas/f/6c3UIJefz4MSQuejvyTs4OnNaFIDl16lRKSgoM1ZxLbtgXR8BxcDQckzs4Z22cEefF2VEGtlgiVFRU+Pj4mJiY6Ovr79ixA0djt1BC7t+/HxkZyTkz7IAEgmaxaj6wISzJeTJsCwvDzqzp2zoIU1CPMTExnB24HodB/fz58+1BeqGOqCnqKww1u3fvhjVgk6ZeJFZGKisrDx06hKbH4H3jxg3WOkQ74Nq1a3v37oXnHzx4EKkO6yJKC3w7IiJiz549qB29eNXmyc3NRVtv27YNzX3z5k3WG5Schw8fQmVBcUCAXLp0ia080bZ49epVWloaxmX48/79+x88eMA6RBORscBuSFVVVXFxcXp6+tGjR728vJzr2SUCJxe5VFsItxm2P3bsGPbFEaSYIAEab/369RoaGsuXL7969Sq7uk1QXl6OAHfhwgWkqgcOHBC1rdCw4hC1NvbFEXCcK1euNPPqI+QTDt6vX7/hw4ejBR89esRuoZx8/PixsLCQuwPJPVbg7++fkpJCFzj5gX1gJdgKFoPdnOvvTMKSyvXwmByAsCwrKztz5gwSbq7/Ci0WHBx8+vTp/Px89CbWvgoMSosyo+QoP2rB9Rou8qCOqCnq2x7kNA+wUnR0tLu7u5ubG7pJ675sRbQ0aN/k5OQdO3bY29tjwFWiqQSk4PPnzzk5OcgBdtV/YeHixYv0tE7b4MaNG/DeHfVERkY+e/aMbfs2R01NTWpqqouLC4YwDF4FBQX0Ge02AzQU98oz9xz469ev2eaXlhYX2K0OlPm+ffsGDBgwcuRIZPZv375ltyBaBgyo69ev79Gjx6RJk8LCwgQSTwygLGBcOX/+PHomJ4c4/QAfQyBW5PfnWw7UGnWHBThlyEkp2AdWag9jcAvx4cOH8vLyCxcuIJXx8fHhrMrd+OXsDGBkiNjY2FiINGx5/fr1lnvUAkfG8XEWnAtnxHmFg5OwVFyPQGmjoqKwJcqvOB9KVExqa2svXbrk4eHBfVcyPT2dxHbb4OnTp6dPn969ezc6iLu7e1ZWVju8tlhdXX327FlPT09YAE6emJhI30ZSLi5fvuzv729XT2BgYGlpKdvGbZ1Xr14hLO/fv3/+/Pn9+vXr0qULN5s0xWql4/nz5+fOnXNzc9u6dau9vX1ERMTDhw/Z9pYFbV9gc9TV1cGg8+bN09LS2rRpE/f+MCEHkExgNF28eLGGhoaFhUVMTMy7d+/YjdoKnz9/vnv3blpaGvf+PPekgGP9FPFImo8ePSrduxKKA0qen5+PWnAPpHCyiqvprvo381F3WEBxvnXZTsDwcO/evby8PAz2SUlJR44c4R614OD8UAh37UOUb775hlnScBvh0XBkHB9nwblwRpy3hQandsv79+8vXrzo6+u7u54TJ07QtIvKBeRHbGyss7MzIr+rq2tqauqbN2/YZm5/lJSUhIeHb9y4cfDgwd26dYNxnOq/pRoXF9ecF9wImQMxmZOTw10r31k/IwYyt/YW52/fvh0fHw8XReLap08fZLBmZma2trYY/oSP4FVXV6N379mzhxs0fXx8kAI9efKENSjRqqBF0C5oHS6xQXulpKQIWv6eX3sR2EIqKirc3Nz09fVNTU2V5VNebQNkGDD4rFmzEKeWLFmCBL1dXcivqqpCegFNgujs4eHBKRZOugjvQ3IPA4PExET0f4xw1+t5/vw5GzBkBI7MnQLnwhlxXq4A3AO9jr880yssLZJFTU3NhQsXZmdnS/HWBqGYQGCziwjF4NOnT0VFRWFhYdxj5J6enidPnqTvDysanKJGwNxWD0IoUnClnmZVJjx9+pT7Cum0adO6d+8+cOBADP3+/v65ubnC1AuJweXLlwMCArixBn9DQkIyMjIg51grEy3GzZs34+LivL29uWwEwz3iDBTmr9uzLVNTU1NQUBAaGmptbT1+/Hh1dXUDAwNLS0sXFxfugQt2h8Z4+fIl8ihEaU5v7969OzIyEskV3eKWJ7A2bA7Lc88NoS3QImgXtA7bYC1MuxPYHLW1tRB45ubm2tradnZ2t27dYrcgWozKykpEsUmTJmlpaa1evRqas52/hynk48ePiOP37t27ePEizIIR7kg9e/bsEd4/5OSukIZ3GhvScBvh0XBk7hQ4F86I8+Ls5eXlPNc+kDNhBELb4bCK/31LQhJIYCsLQr2N1IHryD4+PhjL7ty5w2YZRIsBa8PmsDwXkNEW0ITIzul6PdRyZmamr6/v/Pnz+/Tpg2Fizpw5rq6uZ86ckfyCLDdtx759+3b98i4MTH3ixIkrV64o78NfigNyDLRReHg4Rn8uN9hV//RZbm7uq1ev2MZou0Bupaamws2srKyMjIy6du06YsSIVatW+fv7Z2VlCWRxe/PDhw/FxcXcxM9O9RePduzYERAQkJycjOVswxBSAUvCnrCq8IYQHBs2x/JWfzGtnQpsIQ8ePEB76Orq/vDDD5AZ1dXV7BZEi1FRUbF///6xY8fC/tBs2dnZ7BaEovL48eMNGzZoa2s7OzsLZDEUEa0ICWzlhXuYMzg4GDLPuX5GeiRzx44du3DhAj1223xgQ1gS9uRSZFgYdoa1YfN2pUbEwX0NAfJszZo1xsbGKioqpqamtra2sbGxMvzgIrRQXl7e8ePHPT09uYsa3I3WAwcOJCQkoC1oqtGG3Lx5E0IaRuOejOW0B6yHpCspKenGjRtt+GW9RoFBTp06tX37dnNz8169emlpaU2ZMsXOzi4iIgI+LLfnTZA7IaQcPnyYc2PhIwOhoaEpKSnXrl1DYsy2ZbsHNoFlYB/RaYY5f4YlYU/+jxy1Fu1dYHNw7wkvWLBAQ0Nj8eLFycnJPHfwCJmDkdjd3R3Ds56e3pYtWy5evNiWPn7bhikvL0depaOj4+bmRhenlBcS2G0JDF7C6eg51c19XcLX1zc6Ojo9Pb2kpOTZs2dsCtO+4d7fgX1gpV2/fMcE1hNOd08pgRCE/ZMnT9rb20+YMAGK2sjIaNWqVUFBQfJ/Kh5pd3Z2NgoTEBDAPZPFKRbAXQeBvERSXlxc3PYUOHyyoKAAtYuKikJNhWqNEx7w3pCQEAjp/Px8+T8ZqwggIbly5QrcctOmTWPHjlVVVR04cOD8+fORasIsivZ1G3ScW7duZWRkHDt2jPt6H9eO//eenqOjp6cn9+ZgWlra9evXISZZb1ByUCPUC7Xj3lJEfbmKC+0Am8AysA+sJOcg0xxIYP8KtHRYWJiZmZm2tvbatWvPnTtHw6o8uXPnjoeHx4gRI3R1dTds2HD+/Hmyv+KD3GX58uU9e/ZEEKRZ+pUREtjtgcrKyhs3bhw9enTy5Mnq6upO9c82c9p7V/2H07AqNTU1Ly+vtLSUzYCUHNQI9ULtkKVxn8HjVDQ3jRx3zx/pHexDr700BAZELgRlYmFhgdRIT09v3rx5Xl5eyHdl+Ekb2cJ9fOHq1avcR0z9/f05V3eqh7sDtmPHjp319w/379+PtB5KFXr17Nmz3LwkQD6TC0IqC8945swZlCEiIgLl2bdvn2P9DKmcbOb0BnfXDnUJDAwMDw9H7QoLC1HTdj6x6Lt3765duwa7bd261dzcXF9fX01NbfTo0UjjDxw4kJOTo9Q3AKqqqu7du5eVlQXfgDNzn74TXlKBh8A3tm/fzolSxDfhpSWk0ELXks+8/TiL8Iw4O8qAkqA8KBVXPK6cQq/m/Bk1Qr2wMeqImkr+OomCQwK7cR48eODn5welraGhsXTpUrgIzQIqT9DHvL29x48fz9k/NjaW7K/gIBdBS/Xq1cvX17empoZdTSgwJLDbA8gyoYt69uzp4uLS8AvMFRUV6MKZmZknT548fPgwNCeUJ7bkVCiX03O61MfHJzQ0FLks9Cr0APLakpKSG/Ww2VYLwJ0IZ8R5cXaUASVBebg3ooXl5K4duNSDuqBGqBdqhzqipkzdCQaoU0jTgICAZcuWDR48WF1dffLkyciMExIS2qT1nj59CmFQVFSUkZGRlpbGzUsCIGKFbs/BSVwhnELgp+E2ogfE8YOCgoRnhCZBGTg51LCTEhwfP34sLi4+ceIEbGtpaTlo0KAuXbqYmJgsWbIEeWNSUpIMX09QLj5//lxeXn737t28vDxO3x7+BSiahg4sCnfViR/hVZ5GwfFxFuEZOYWPkqA87fMaEAnsL/D8+XM4yqxZs7p37z5lyhQvLy9EYXYjosXAyBcWFsbZf/r06Rjy0VfZjQiFobS0dNGiRbq6uv7+/q0+wwQhISSw2zBIa6CLTE1NBw4ciFS++RNxVVVVIVvi3vAEMTEx4fVwLyoDTtZycLeIOYR3jHlgthE9FHdwnIU7Hc7LFQAlQXnazE2P1qKsrCwqKsrGxmb06NEqKiojRozYuHEjJB/EHrspQciRysrKy5cvIw/cunWrhYXFkCFDOnfubGRktHDhwj179sTHxyMC0EuFhAJCAltS3r59e+bMmS1btgwaNAj6Yfny5dHR0XSJUW7A/oikq1evhvHRBA4ODhkZGfQAuWJSXFxsaWmpp6eHhJ7aSPEhgd0mgZYODg5GtPz+++8RPNvhDQSCB2QvSUlJTk5OM2bM0NDQMDQ0XLx48f79+3NycugRJKJVqK2tLSsrg1v6+vquWbPG1NS0R48empqa48aNW7lypbe3d2JiYmlpqRK9hUu0Z0hgS0N5eXloaOj8+fO7d+8+evRoDFFZWVkkJOTGlStXdu/ePXLkSHV19YULFx47duzZs2fsRkRrc+3aNXNz8759+6KzUO9QZEhgtzFevnzp6uras2dPS0tL6CV2NdEueffuXXZ2NiQ0Bk0DAwPollmzZjk7OycnJ9Ob54T8efXqVW5u7pEjR7Zt24ZINXTo0E6dOg0ePHjOnDn29vYhISFwV7qJRSgvJLCbxadPnxACMESNGzcOYs/CwiI4OJieYZYbFRUVYWFhCMcqKipjx45FTpmXl8duRLQqaJEZM2YYGhoePXqULjwrJiSw2wy3b9/etGmThobG+vXr8ZtdTbQn6urqiouLMUTCGUxMTLhR0tbWNjo6mnyDkCdwxVu3biUnJ+/bt2/dunXjx4/X1tZGmIJDLl++3MvLKyEhoaSkhC7EE20JEtgyo7KyMiYmZuXKlXp6egMGDNi4cSOiCU3NJR9qamrOnj2LNEJfX19XV3fVqlWnTp0i4ysOOTk5U6dOHThwYGRkZG1tLbuaaFVIYLcBLl++zM1htnv37ufPn7OrifbB48eP4+Pjt27dOmnSJDU1taFDh0LAHDhwoKCggNQLIR8EAkFeXl54ePiOHTsQlIYNG9a5c2eM/ubm5nZ2docOHcrKyqIYRbR5SGC3CDdu3PDx8Zk2bZq6ujrGOQ8PDwxv7EZEy1BUVOTu7j5+/PguXbpMmTLFz8+PrtYrCBhWzczMhgwZEhMTQ2+EKg4ksJWXurq6xMREhLsBAwYEBgbS27Ptjerq6vPnz+/du9fS0lJXV5d7LwApR1paGnQOuzVByBSM47du3Tp9+jQSrQ0bNkycOBEeyL07uXTpUk9Pz7i4uOvXr9OMp0Q7hAR2y4J0JzU11dbWFqICcWfZsmWRkZFPnz5ltyNagJcvX8LaiPKampoDBw5EKyARoUDf6qSnp0MPDBs27OTJkzT5pyJAAlsZef/+/aFDhwYNGjRu3DhksXTFqp3w8ePHa9euBQYGrly5ElFUVVXVzMzM3t4ePvDw4UN2a4KQHchdMzMzQ0JCHBwcLCwshg4d2rFjRyRXs2fPRn4VHBx84cIFym8JgoMEtvzA4BcWFrZo0SINDY3vvvtuy5YtCQkJdI1ZDiD1zMnJcXJyGjFihJqa2rx58w4fPtwmv+epRJw7d27s2LHGxsboBew6Qr6QwFYuXr58uWfPnl69ellaWmZnZ7OriTbHnTt3jh8/Dg3z/fffq6iomJiYrF27NjQ0tKioiC6sEC1BdXV1QUEBvG737t0//vgjN6dsz549x48fD9/z8fHhJvSm9w4IQhwksFsHRC5fX99Zs2YhZo0aNWrbtm2pqalv375ltyNkDXT1kSNHFixYwFne2dk5NzeX7qO2FikpKRi5R4wYcfr0aXYdIS9IYCsLd+/e3bx5s6am5rp1627dusWuJtoKr169Qmx0dXU1NzfX0tLq27fv/Pnz9+3bd/HiRcoTCNny6dOnmzdvQjAjKUVgmThxYq9evdTU1DAuL168eNeuXTExMfn5+XQ3iCCaBAnsVgahLScnx93dffLkyZB848ePh+TLzMykJ5lbmo8fP164cGHbtm3c0/srVqyIjY2lIaRVwNBuYmIyZsyY1NRUdh3R8pDAVnyuXLmyYMECydtsdwAAM0xJREFUHR0d5Ls0P1Db4/3797m5uf7+/lZWVgMHDtTQ0Jg+ffrOnTsRG+kjlIQMqaioSEtLCwoKsrW1NTc3HzRoUMeOHZEFzZ07197e/tChQ8iLnjx5wu5GEEQTIYGtQGCIzcjIcHJyMjU1hdieOnWqh4fH5cuXadbllqa8vBzjyuzZs7lrHHv27EE6S7e15cypU6eMjIzg/OfPn2fXES0JCWyFhZvDbMKECf379z9w4MC7d+/YLQilpaSkJDw8fPPmzSNHjlRRUcHfLVu2RERElJaWspsSRNOpqqrKy8uLiopCVrlo0SITExNVVdXevXtPnjx5w4YNfn5+ycnJZWVllGESREtAAltBefPmzZkzZxwcHEaMGAHVZ25ujmhYWFjIbkfIlA8fPqSnp2/fvh1KT0tLa8mSJceOHaOruXIDcuL48eNDhw6dOHHihQsX2NVEy0ACWwFBLAoNDR08ePCYMWNOnTpFSXAb4OnTp4mJiY6OjtOmTevevfugQYMwxPj7+1+5cuX9+/fs1gQhMcgYi4qKECg8PT1XrlxpamrKfWh69OjR8DE3N7fY2FgkkPTtUoKQGySwlYBXr17FxcVt2rRpyJAhUH0LFy4MCgoqKytjtyNkSkVFxdGjR62srDQ1NY2NjXfs2JGRkUFTesiBz58/R0VFIfucPHnypUuX2NWErCGBrVBUVla6u7v36tVr7ty5Fy9eZFcTygP0TFZWlq+v7/z58/X19TF8z5kzx9XV9cyZM1VVVezWBCEBNTU1169fT0hI8Pb2Xrt2rZmZma6uroqKCrKUBQsWIFEJCwvLycmhF0kIonUhga1kQPVFR0evXr3awMBAT09v6dKlISEhN2/eZLcjZAf03uXLl5EVmZqadu/e3dzcPCgo6M6dO+x2hEypra0NDw8fMGDAtGnTYH92NSE7SGArCPfu3bO2ttbU1ETeTFFdGcFgUVRUFBoaihaE4IHswahha2sbGxt79+5ddmuC4OXjx4+lpaVJSUncV6YxFPbp06dLly7Dhg2ztLTcunUr0r+MjAz6JApBKCAksJUYZGNHjhxZuXJl//79tbW1582b5+/vf+3aNfpuR8shEAiQKq1evVpPTw/ab+PGjcnJyTSta8vx6dOnw4cPGxgYzJw5My8vj11NyAIS2K3O1atXFy5cqKOj4+TkRJNaKRcPHjw4deqUvb39xIkTVVVVjYyMMCgHBQUVFhYifLFbE0RjIG27detWSkoKsrgtW7bMmDEDeV2nTp2GDBkyZ84cOzs7eFRaWhqcjd2TIAiFhAR2G6GiouL48ePQexjdu3fvPmvWLE9Pz5ycHHqkueUoKSnx8fGZNm2aurr65MmT9+7dW1RUxG5EyAK4cUhIiL6+PlKNa9eusauJ5kECuxVJTk42MzMzMDAICAigS3VKgUAggNTx8PCwsLDo2bNn7969LS0tEf/T09Orq6vZrQmiAXfv3k1NTT148KBwKu8OHTrgLzI3a2vrAwcOnD179vbt2zTTKkEoLySw2yCvXr1KTEy0s7MbPXq0mprapEmTnJ2dkRBQ9tZCvHv3DsMhxkUMkLq6uitWrIiOjq6srGS3I5oHZHZgYKCenh7S2eLiYnY1IS0ksOXPhw8fwsLChg4dOmrUqBMnTtAcZooMIk9BQQFkz08//TRkyBBuVN22bVtCQsLjx4/ZrQlChPLycmRfwcHB9vb2FhYW6PKdO3fu16/f9OnTN23atH///tOnT5eVldHDDgTRxiCB3cZ58+bNuXPnnJyczMzMkBaMHTt269atSUlJ9MHnFuL+/fshISFQgN27dx83bpyzs3N2djZlzzIEyiQgIEBXV3fhwoUlJSXsaqLpkMCWJ1VVVR4eHnBgc3PzzMxMdjWhGNy+fTs6OtrGxgaDpoqKiomJyfr16w8fPlxcXEz3FYmGwCvu3LmTmpoaGBhoa2s7d+5cTkv36dNn6tSpcB5fX9/ExESMWRjC2J0JgmhzkMBuRyCsX7p0CbndjBkz1NXVjY2NN2/efOLECfoMVUvw8ePHrKwsJyenUaNGQWxDDYaFhT18+JDdjpCKmpoaPz8/qJQff/yRpoNqJiSw5UN5eTkEm5aW1qpVq+jakKJRWVmZnJzs7Ow8a9YsTU1NAwMDBO39+/dnZ2fT58cJUT59+sS9Lx0QEGBtbT179uxBgwZ17Nixf//+3H1pjE1JSUmkpQmiPUMCu51SW1ubn5+P7MHS0hIJH4aH1atXHz58uLS0lN2UaDbPnz+PjIxctmyZjo7O0KFDbW1tz5w5Q0/sNx8kvt7e3r169Vq6dOnt27fZ1YRkkMBuaQoKCn788Udtbe0dO3bQBU0FoaamJicnx9/ff/HixYaGhhoaGjNmzNi1axek0YsXL9itiXYJFDI3jzeSJShnbu4x0fel4T9Q2vSMN0EQDCSwif/jxo0bwcHBP/3008CBA5FnmJube3h4ZGRkvHnzht2UaB75+fl79+6dMmWKurr6Dz/84O7ufuXKFZr4vTnAS+GuPXv2XLFiBX0+TQpIYLccSL4nT57cr18/JOIUTlud69evHz16dOPGjSNGjFBRURk9erSNjU1UVBQEErsp0c549+4d931pX1/f9evXT5s2TV9fv3PnzkOHDp0zZ46tre3BgwdTU1Np7jGCICSBBDbB8uLFi8TExG3btk2YMEFVVRWJyJYtW6Kjo+/fv89uSjQDDOfnzp3bunXr8OHDNTQ0Fi5cGBoaSkaWmurqajc3Nx0dndWrV5MZmwQJbJnz8eNHCLlhw4YhfsbExNDdrdaioqICw9n27du5a5qDBw9eunRpQEDA1atX6fHddsvr16+LiopOnTrl5eW1du1aMzMzPT29rl27GhkZWVpaOjg4BAcHp6WllZeXs3sSBEFIBglsgg+kiXl5ef7+/gsWLMAIpKurO2/ePD8/v8uXL1N2IkOePn0aFRW1fPly7vPaGzZsiIuLoy++SIFAIHBxcdHW1l63bh298S4hJLBlCDwQWXvv3r1nzZqVnp7OriZaGGinCxcueHt7Y6hCOEUosLCwcHNzS01Npak92yHPnz9HuoLhFePC0qVLv//++549e6qqqpqYmMyfP3/79u2hoaEZGRkVFRXsngRBEM2ABDbRBB48eHD8+HEbG5uRI0diiDI1NbW3t09ISIA+ZDclpKWkpMTPz2/mzJnq6uqwsLOz88WLF+l75k2iqqrKycmpR48eGzdupO/ofBES2DLh4cOHtra2WlpaK1asuHHjBruaaBlqa2uLiooOHTq0evXq4cOHq6iojB8/3s7O7uTJk/QkS7sCzX3+/PmQkJBt27ZBPENCYwzV1tYeN24cpDVG0sjIyJycnGfPnrF7EgRByBoS2ISUvHv3LjMz09PTc+7cuZqamoaGhhjDDh48iFyH3iiWCRDVFy5cgFAcO3YsEoVZs2ZBeF+/fp3djhBDZWWlo6MjBI+1tTXNLMUDCexmUlhYuGTJEqTyyOzpVpgcgJSCfoaKhpaGooauhrqGxsboQ99EbPO8f/++tLQ0OTnZ399/y5YtGBkHDx7cqVMnfX39qVOnrl271svL69SpU+iV9BQYQRCtBQlsQjaUlZUdPXoUY5uRkZGamtrkyZORayYkJFC6KRMEAkFcXNzGjRsHDRrUs2fPpUuXHjly5MGDB+x2RANevHixdetWTU1NW1tbunfRKCSwpebs2bPI6ZHZ+/n5vX79ml1NyAgEwNTUVDc3t7lz52pra+vp6c2bN8/b2/vChQtk9jZMVVVVQUHBiRMnPD0916xZw70sLZx4zMbGJiAggJvEmx7yIghCoSCBTcgeJEPnzp3z8PCwsLDQ0dHp3bu3paWll5dXeno6XVFuPg8fPjx69Cg0dq9evaC3uRe26fVCfiCtIbAhsyG26Rs8DCSwmwqy+fDw8OHDh5uYmERHR1NyL3M+fPhw9epVyCcEusGDB6urq0+ZMmX79u2JiYl00bZN8uTJk+zsbAxtTk5OVlZWY8aM0dLS0tDQGDly5MKFC3fs2BEWFpaRkfHo0SN2T4IgCMWDBDbR4jx48ODUqVP29vYTJ05UVVU1MjJauXJlUFBQYWEhTa7bTK5fv+7n5zd79mwkoMhIdu7cmZ6e/v79e3Y7oh7kcNbW1sjbHB0dKysr2dXtFRLYkiMQCHx9ffX09GbMmJGWlsauJppBWVlZVFSUjY3N6NGjVVRURowYsXHjRiguei+mLfHhw4ebN2+ePn06ICDA1tZ27ty5w4YN69atm66u7vjx43/66Sd3d/eYmJgrV668fPmS3ZkgCEJJIIFNyJXPnz8XFRWFhoauXbvW2NgYWZSpqSlG2ePHj9+9e5fdmpCYjx8/Xrp0ycXFBTkKxPbUqVM9PT3pC9uN8vjxYyTuPXr0cHJyqqqqYle3P0hgSwLcxt7eHm6zbNmy4uJidjXRdF68eJGUlLRr164ZM2ZoaGgYGhouXrzY398/JyenpqaG3ZpQNp4/f56bmxsdHQ3NvHLlyokTJ3IPeA8ZMmT27NlbtmzZv39/YmLi9evX3759y+5MEAShzJDAJlqTN2/eZGVl7du3b/78+fr6+lpaWubm5q6urikpKa9evWK3JiQDVoUBIQaMjY27d+9uYWEREBBA0xozPHz4cN26ddra2i4uLu38AXsS2PwUFRVBVENaOzg40KT0zeHdu3fZ2dmQVQsXLjQwMNDU1Jw1a5azs3NycjI9UaK8fPr06fbt26mpqUFBQRh3LC0tMfSoqakhuo4dO9bKysrJyenw4cMY66n7EATRTiCBTSgQz549S0xM3Llz5/Tp0zU0NAYMGICx2d/f/9KlSxCN7NaEBLx8+TI2NhZKcuDAgb169VqyZElYWBh9vUYITLF69WodHR03N7d2O0EACWxxpKWlIRbp6en5+vq286sw0lFXV1dcXAxxtX79ehMTExUVFSguGxub6OhoSDJ2a0LhqaysvHr1KsYUT0/PtWvXTpkypW/fvh07dhw0aNCMGTM2btyInhIfH19UVNRuwylBEMTPJLAJRaa0tDQiIsLa2nrcuHHIzIYNG7Z06VLS21LDzY62bNkyCAZDQ8M1a9YgzaWJtcGdO3dWrFjRs2dPDw+PduhaJLAZPn78GBUVBUE4fPhwhCCaw6xJPH78OCEhYdu2bZMmTVJTUxsyZMhPP/104MCBgoICsqSyUFdXd/fu3bS0tJCQkO3bty9cuHDkyJEaGhqampqjRo1atGjRjh07QkNDz58/T5drCYIgGkICm1AOPn/+XFxcDH1IelsmlJWVBQYGzp8/HzkTLAmrJiYmtvN7dLdv3+bmZvf29n737h27uu1CAltIdXW1n59fnz59pk2blpqayq4mGgNGS09P9/LysrS07N27t46OjoWFhYeHB+RZOw8pSgF3U/rEiRN79+5du3YtPL9///7ffvutoaEhfq9btw4te/LkyYKCApqxgiAIQkJIYBNKCeltWVFXV5efnw9JOXPmTHV19VGjRm3duvXs2bPt1oY3b960srLS1dXdt29fO5lpiQQ2qKiogOf36NEDYaSoqIhdTYjw6dOnwsLCoKCglStXGhkZqaqqTpw40d7e/tSpUw8ePGC3JhSDjx8/3rp1C7EdDefg4DBv3jwTE5Pu3btraWlxN6W3b98eEhKSlpZ2584dmh2TIAiiOZDAJtoCjN7u1q2bUG9nZ2e3W63YVJCB5eTkuLu7T5kyBWLb1NTUyckpPT29nehMUUpKShYuXNi7d2+40IcPH9jVbYt2LrCvX7++fPlyyAw7O7uHDx+yq4l67t27Fxsba2tri7CgoqJibGy8du1a6LGioiISY4pGRUUFInlUVJSbm9uKFSsmTpzYp0+fTp06Cd+U9vHxiYuLKywspEcMCIIgWgIS2EQbhEdvZ2ZmUkohCe/fv79w4YKzs/OECRPU1NR++OEHV1fXS5cutau3KOFFlpaWenp6gYGBbbji7VZgp6enz5w5s3fv3t7e3hQWGKqqqs6cObNnz545c+b06NEDCm3+/Pm+vr4IoXTJUkGA0xYVFSUkJPj5+W3evHn27NlDhw7t2rWrrq6uqakphrxdu3YdOXIETfbo0SN2Z4IgCKLFIIFNtH1E9Tb3mWhDQ0MIJ+SOSUlJlHl8kbdv3547d27Hjh1jx46F9aZPn753797c3NxPnz6xm7ZFCgsL586dq6+vHxIS0iZldnsT2PDbmJiYESNGDBs27NixY22yTaXgw4cPV65c8ff3hzAbNGhQ9+7dp06d6ujomJiY+PTpU3ZrQo5w38ESTjm2aNGi0aNH9+jRA9HY2NgYY5mdnd2BAwdOnz5dWlraDh84IgiCUDRIYBPtESQrcXFxyB3nzJmjq6urpaWFVNLe3j46Ovr69eu1tbXsDsQvVFdXJycnI58zMTFRU1ObNWuWt7d3Xl5emzfa1atXUVkDA4OwsLA2Jsnaj8B+8+YNBGTfvn0nT56ckpLCrm5/3Lx5k/tSw6hRo1RUVEaOHLl58+Zjx46VlJSwmxJy4fHjx5cuXUKjuLq6rlixwszMTF9fv2PHjgMHDpw+ffq6dev27t0bGxuLcPTy5Ut2Z4IgCEIxIIFNEP/3seizZ8/6+vouXrx42LBhXbt2RbqJVObgwYOXL1+m5yHFIRAIEhMTbWxsjI2N1dXVzc3NYcOCgoK6ujp207ZCbm4u0tz+/ftDhLSZG/jtQWA/efJkx44d2traP/7447Vr19jV7Ybnz5+jzzo5OcGNNTQ0BgwYYGVl5e/vj0BHdz7lSWVlZX5+/smTJ729vTds2DBjxoxBgwZ17txZT09v/Pjxy5Ytc3Z2Pnr0aGZmJs0LQBAEoXSQwCYIlrdv3+bl5QUGBiLvGT16dLdu3YYMGbJw4UJkQikpKchQ2R2In39+9epVXFzcli1bjIyMkLjPnTvXz8+vsLCQ3a5NkJ2dPWXKFCTEkZGRbeDWfdsW2CUlJatWrdLS0rK1tS0vL2dXt3UQzS5duoTOuGDBgr59+8IOs2fPdnFxOX36NPosuzUha16/fl1cXJyUlOTv7w8PtLS0NDY2Fs7djWFl69atQUFBZ8+eLSsra/PzKRIEQbQTSGATxBeoq6u7ceNGTEyMg4PD9OnTe/TooaOjgyQViVF0dHRRUVEbe2C4+bx48eLkyZObNm0aOnQoxDZySiSXbe/TR5mZmWZmZkOGDIFvKPVEym1VYF+4cMHc3FxXV9fT07P9fMIX8QqKLiwsbN26dSYmJioqKuPGjYO0g5feuXOH3ZqQEdDGUMipqanBwcHC16S1tbVVVVWNjIzmzp1rbW29f//+xMREREKaUY8gCKJtQwKbIJpMRUVFcnKyl5cXsqhhw4Z17tzZ2NjYysrKx8fn9OnTWMvu0I559uxZbGzshg0bhGIbWWZhYWGbeYw8PT19/Pjx33333cmTJ5W0Um1MYNfW1sLlRo0aBZc7fPhwe7gr+OjRo/j4eAcHhx9++EFNTQ3euHz58oMHD167do0u/8mWz58/3717F70eruXk5LR06VJ0fz09PYwC3Eew1q9fj6HhxIkTeXl5L168YPcnCIIg2gEksAmiubx//x6J7JEjR2xtbadMmaKlpaWpqWlmZmZtbR0SEnL16lV6i5sDYht558aNGyEAILYtLCz8/Pzaxjvb586dGzdu3PDhwxMSEth1Ck+bEdhv37719/c3MDCAzkxOTmZXtyGqq6vPnz/v6elpaWnZqx78wL9paWl0d1RWPHjwICsr69ixYy4uLsuXL0dI79u377fffmtoaIg4v3r1ajc3t6ioqOzsbLqoShAEQYhCApsgZA/yrZSUFB8fHysrK2NjY+7mxrx583bv3h0fH3/r1i12h/YH9xj55s2bhw0b1r179zlz5uzbty8/P1+pn7VGo48aNcrExES51F0bENhPnz7duXOnjo7OokWL4EXsauXn48eP165dCwwMXLFixXfffaeqqgq95+DggHhCk2A1k8ePH0MkQyq7u7tDNkM89+/fH0JaX18fRoa0RtyGzM7MzITkZncmCIIgiAaQwCaIFufTp0/Xr1+PjY3dvn373Llz+/Xrh/x49OjRa9euDQgISE9Pb+cfXEH1uQnShg8fDrFtbm7u4+Nz5coVJZ2mOzExERob7Xv27Fl2nUKi1AL75s2ba9as0dTUtLa2vn//Prtamblz505MTIytre3333+voqICp0LECAsLKyoqUurrUK1FRUVFTk5OdHS0h4cHLDlt2rSBAwd26tSJm7h76dKlTk5OMO/58+fv3r3bBiYvJAiCIFoLEtgE0QpUV1dfvnw5KCgIqtLMzExLS0tbW3vKlCk2NjbBwcG5ubnt9jnPysrK+Ph4iAruO9vTp09HNpydna10r5LGxcUZGRlBGqWlpbHrFAwlFdhZWVlz587t1asXPKRtTIiNWqSkpLi4uJibmyMm9O3bd8GCBfv27bt48eLbt2/ZrQkxMEIaMUT0C1hCIY2Oefv2baULLARBEITiQwKbIBSC58+fnzt3zt/fHxnhmDFj1NXV+/TpgzzbwcEhIiKioKCgHWbYAoEgKSkJFhg9ejTE9pQpU1xdXTMzM9+/f89uqpDU1dXFxsYOHTp0woQJFy5cYFcrDMolsGtra0+ePIk+MmTIEMgkpZ7DDJ6cm5uLXm9lZTVgwAANDQ2oQci/xMTEZ8+esVsTv+bx48eNCunevXubmpouWbLE0dExJCQEcfXWrVskpAmCIAi5QQKbIBSU+/fvJycne3t7I1McMWJEt27d+vfvP3fu3G3btkVGRl67du3du3fsPm2X169fnz17FhkzUmeI7YkTJ+7atSstLU3xrzt8/vwZGgCp/6RJky5dusSuVgCURWDD4Q8cOIBeMGHChKSkJCWdG6+kpCQ8PHzz5s0jR45UUVHB3y1btkRERJSWlrKbEvU8evQIHYd7R3rNmjUNH+3euXNnaGgod0daqS+4EARBEG0DEtgEoTTcunUrMTHRy8vLysrKxMSka9euAwYMsLCwgORG9tl+7nJDaJ0/fx4C28zMDGJ73LhxsMDp06cV+bn62tpayCq0F+TB5cuX2dWtiuIL7OfPn6O5dXR0FixYcOXKFXa1YvP06VN0W0dHRzR99+7dBw0atGTJEn9/f1REWZ7FkA/l5eWZmZnoJq6urqtWrZo8eXL//v07dOjQp08ferSbIAiCUCJIYBOEElNWVobcfe/evZDc3F3ufv36mZub29vbIxNFBq/ImlMmQKJkZWW5ublBvUBsm5iY2NjYxMXFKeYXaD99+nT48GEDA4OZM2devXqVXS0v4Dai/zICm1nbuqAw69at09TU3Lx58927d9nVCsmbN2/gk76+vvPnz9fX19fS0pozZw5E45kzZ6qqqtit2xnoAnfu3ElPTz9y5IizszP3+StELTgh/nKzdmM51mIbtLiSznRIEARBtGdIYBNEmwLJa3JyMpL7lStXjhkzpnv37r169Zo+fbq1tXVgYGBGRkYbfrcTuXhubq63tzf0jIaGxtChQ6HNoqOjHz16xG7aqnz8+DEkJATSC+UsLCxkV7c8fn5+UIDCf0UFNpZjrfDfViQ7O9vCwgLeu2fPHgWfZv/z589FRUWhoaFr1641NjZWUVExNTW1tbWNjY1VlosCMufdu3c3b95MTU2Fqzs6Oi5ZsmT8+PF6enodO3bs37//5MmTV61a5erqGh4enpmZWV5ezu5PEARBEEoLCWyCaONUVFQgzfX399+4cePEiRN1dHQgPseNG7d69Wro8KSkpDb5Xe66ujponoCAgAULFvTs2dPQ0HDFihWHDx++ffs2u2krAZkdGBgIyTFv3rzr16+zq0WQ+denXrx4oampGR8fz/0rFNjR0dFaWlqte/MfYjUuLm7s2LGDBg06dOiQwj5E/eDBg1OnTtnb26NPqaqqGhkZrVy5MigoqLCwsF3ddBUIBOhoCCMHDhxwcHBYuHDhmDFjEGS6du06ZMiQGTNmrFu3zsPDA66Vk5Pz+PFjdn+CIAiCaHOQwCaIdserV68uX74cGhoKeTBnzpwBAwZ07tx5+PDhSI6dnJxiYmIKCgpev37N7qbMlJWVob7Lli3r169fr169UFNobwiDVp8o68OHD/7+/rq6uosXLxY3zRVa5PTp0+zS5rFmzZqOHTtyGpsT2JBAWLJ27Vp2UxmRmZnJLvo1NTU1gYGB8Mbx48cnJia2etMwQEmmpaVBK1pYWEBA9u7d29LS0svLKz09vbq6mt26zfH06dMrV66cPHnS19d3y5Ytc+fONTY21qgHoQNhZPPmzViFDfLy8trwYzIEQRAE8UVIYBME8X9vMkNtnjhxYs+ePT/++OOIESNUVVUhIaZNm4a8GVo0NTX14cOH7G7KyYMHD6KiotatWzd06FDIA3Nzc8iknJycVpw2CdoS4gTKf+nSpQ3vsUO/aWlp5efnM8ubw82bN7/99tsOHTpAY0NgQ13jN5ZgObupLDh9+vTBgwfZpb/w/PlzZ2fnnj17zps3T3FmgIM/wOYHDhz46aefhgwZoqamNmnSpG3btiUkJLThO7Hl5eVZWVkRERHu7u7Cb1916dIFrTNmzJiFCxc6ODjAJklJSYgYbX6KB4IgCIKQAhLYBEE0DlTEuXPnkExv2bIFebaenp6KioqJicmiRYucnJwgya5evarsGfbLly+hl2xtbUeNGsUpKCi9tLS0N2/esJu2PDipp6cnlMyKFSuYd3fnzJmjqakp22fF0aadO3fu2LEjBDbUNRp35syZ7EayADJVS0vr1atX7Iqff759+/b69es1NDQ2bdrU8MqC/EEZ4Ng2NjZjx47lvB3FO3z4cHFxsaLdUW8O3AvS6N2hoaHoy8uWLZs4cWLfvn25mcbwG0uwHGuxTVlZWU1NDXsIgiAIgiDEQAKbIAhJgQIsLCyMjY3ds2ePlZUVRKm6ujoE4YQJE9atW7dv376kpCQk7q14K7g5vH79GnICuoL7+tfo0aPt7OwSExPlPMNWdXW1m5ubjo7OmjVrHjx4wC2MioqCBjYwMGhUpkrH+fPncZZvfkFXVxdL2I2azf3796GfFy1axCzPycmxtLSE87i6usrZwqJUVlYmJyc7OzvPnDlTU1MTFkZR9+/fn52d3Qa+M//ixYv8/Pz4+Hh/f39bW9v58+ejz6LRu3XrNnjw4OnTp69du9bd3T0yMjIrK4tmGiMIgiAImUACmyCIZvH06dPMzMxDhw5xb3Qjce/YseOgQYNmz55tY2Nz8OBBqFbZ3nqVAx8+fIAC3Lt3r7m5OTchOaQIdIjcKiIQCKD6tLW1N2zY8PjxY6huVVVVyH5TU1OUjd1aWoYMGcLdwYbiGjZsGLu62bx69UpfXx/Hv3TpErfk8+fP0Hvff/89PCQ4OFj+c5hBNqNlIaEXL15saGiIxp0xY8auXbuSkpJaUec3h7q6uobPdaNl0abwn5EjR1paWkJd+/n5xcXFXb169fnz5+whCIIgCIKQHSSwCYKQMRBRt27dSklJ8ff337RpE9J9qKwuXboYGRkh19+6dWtISEhGRkZFRQW7p6JSVFR08OBBSDK9eqysrAIDA7GQ3U4CMjMzJb81WllZ6ejoqKWlZW1tPW3atK5du/bs2RPFkNXjykePHu3duzf3YDB+s6ubx4cPH6DuIODR+j/Xv+cfFBQ0cOBAU1PThIQEOAm7gwgwkQyfg7h+/fqRI0c2bNgwYsQIFRWVMWPG2NjYREVFKdf8+QKBABVBtwoODoZXLF26dPz48dz1CwMDAzMzM9Hnum/evPn27Vv2EARBEARBtDwksAmCkAc1NTWQB/Hx8d7e3mvXroUegLTr1q3b8OHD582bt23bNggDiE/FV9337t0LDw9HFYYMGcLNkbZ3797s7GwJbyxDOi5atEjchOGN8uLFCwcHB8hsTgxD4W/fvp3dSCpQZm1t7Q4dOkC3S1h+Camrq5szZw7at0uXLq6uri4uLtwcZjk5OeymDYBxdu3axS5tCvAiaHg41eTJk9XV1QcPHgzxGRAQkJ+fL0Pd3kI8evQIVoqJifHy8tq0aRPMyM3XjYoMGzZs9uzZGzZs8PT0jI6OvnTpkvAlAoIgCIIgFAQS2ARBtBpv374tKiqKi4uDloBknTBhAqe6uXvdUJXBwcFpaWlyezC7qbx8+TIxMdHOzm7MmDFqamoov6Oj4+nTp/nnfoOAhFrev38/u0I8Z8+eHTVqFPc4N/e+NCzDbiQVbm5unTp1wl92RfOwtrZGO6KoENhdu3ZFa0o4h1l4eDg0f1N14+vXrzMyMuBFOJGenp6Ojo6FhYW7u/u5c+f426K1QIFLSkrQrCEhIU5OTj/99NMPP/xgYGDw7bff9unTZ/z48VZWVtu3bw8MDExOTkYfqaqqYg9BEARBEIRCQgKbIAjFAqq7uLg4ISHBx8dn/fr1U6dO1dfX79y585AhQ8zNzW1sbPz9/SFib968Kdubrs0ExU5PT3d1dZ0+fTrEtrGx8aZNm6Kjoxv9vNmxY8cgPqdNm8b/uHhZWdnixYtVVVWhuzhpzQFrQEPyfBy7vLz8xo0bKM/x48cPHz7s7Oy86xecfo2dnR2UMP4yy4XbY18cAceBgsUxJZkKKyAggFPX39S/3T1y5Mh+/fp99913aDieSdpgipUrV2KXpUuXsusa8OnTp8LCwqCgoFWrVhkZGamoqEyYMMHe3v7UqVOSlFBuoPWzs7PhBsLb0SYmJpqamvAQGGTGjBncNGMRERGZmZkoOf+T8wRBEARBKD4ksAmCUAKgpUtLS5OTkyHSrK2tZ8+eDb0NndmnT59JkyZBpezdu/fEiRP5+fk8Ek5u1NbWFhQUoKgLFizo1auXvr7+kiVLmNe2LS0tISahk69fvy6y6/8PVNmyZcu6du0qqqsZILyhe+Pj4318fCCJd/6Co6MjlGd4eHhKSsqVK1egigW8pKamsot+DY6A4+BoOCaOjONzJ+KkOM6OMqAW3PUOtBHahS1r/ZfA8Bc12rFjx7Nnz5j6onEhOCE7IZXFXTe5e/dubGysra2tqakpNjM2Nl6zZk1ISAisCoOzW8uRqqqq4uLi06dPC9+OnjhxYr9+/VBfNL3o7Wju89GK4KIEQRAEQbQQJLAJglBiHjx4kJ6eHhoaCtm2aNGiUaNGaWpqamhojBw5cuHChVA1EGBpaWl37tyR873BsLAw4ZPtOPuxY8eEr23Pnj3bw8Pj3LlzPXr0+Kb+djSk+K/3bhyouOjoaE5Lo767d++G4r148eKjR49YTSxHcHaUASVBeVasWIHqQCcbGhqamZlBALu6usIUEJ/5+fmPHz9mq1QP9tXS0tLT04MIh6GEyyFcz5w5gyPMmTMHG+jq6qJZfX19MzMz5f+h8o8fP967dw+nRmnd3NzQmjNmzPjuu+/U1dXRpsOHD+fejkbLRkVFwSDl5eWymouOIAiCIAglggQ2QRBtDQizgoKCkydPenl5rVu3btq0af379//222/79es3ZcoUqD6oICjV3NzchrdSZQWUv7a2tre396dPn0SXV1ZWJiYmOjg4jBs3DlqUu6/bqVMnqLWGj4ujIgkJCRCu2+uBtEOZsZDVuAoDao2/KCHKidJyxUb5UYtG3yLmHgvv3bs3d6/eyMgIO/r7+y9ZsmTgwIHdu3dH2zk6OsbFxe3atUuKd7OloKKi4sqVK6dOnfLz87O1tV2wYMHYsWNRwo4dOxoaGk6aNGn58uVO9ZN1nz17tqSkpLq6mj0EQRAEQRDtGBLYBEG0C+rq6u7du5eenh4WFrZz504rKytIXB0dHRUVle+++87c3HzLli379u2Lj4+/du1ao2qwqUCeQTQOHz4copFZlZqaOmDAAAh+4cvV+IHC3Lhxo7a2NiMjw8XFZdu2bXv27MHvFy9esEJWqUD5UQvUBTVydXXFb+6J7tLS0iFDhvTt2/eXp8j/72b+iBEjNm/eDHEO7crZCtaDDbF206ZNvzJiM+Ae6k5JSTl06JBT/RxjUM4GBgZQ0dDSUNTQ1dy3o0+ePAm9rfiT2xMEQRAEoSCQwCYIol3z9u1byNrk5OQDBw7Y2dnNmzfPxMREox78sLS0hNDy9/dPTEwsKioSNGVK6g8fPvTq1UtdXb1Hjx4bN27k9n3w4AFOASHHTQMGea+vr9+/f39DQ8MOHTpAYULaJSQkPHv2jNWpbQLUC7VzcHBYsmSJqqpqly5d9PT0hDOiAU1NTWzAGRDbw26wXvfu3XV0dMS9my2Ompqa27dvp6enQ65D2K9Zs2b69OlDhw5VU1ND4xoZGc2aNWvdunXu7u7YIDMz8969e8zjBgRBEARBEE2FBDZBEEQjVFVVFRYWQuzt37/fxsYGSltUeFtYWFhbW/v5+cXFxeXn57948YLdv57U1FRsD91oYGAAsW1lZQVFjSVQlaNHj4bIhPCDwMPyZcuWRUREKPLj37IFNU1KSkKtoXIXLVrETVmnra3NTZA2fvz4wMDAnj17cve31dXVYUnWuPXU1taWl5dDHkdFRXl6ekKQz507Fw2EQ3Xt2nXgwIGTJ09euXLl7t27w8LCzp07V1pa+vr1a/YoBEEQBEEQMoIENkEQRBPghHdiYqK/v7+dnd38+fNHjRoFOQflPHTo0BkzZqxbt87DwyMyMpKb6QpSnFOJnTp10tHRwQbCyc9yc3O52+MVFRWsAG03oO6wAOxw6dKlgoIC6GrobRjz23pgt969e0MzP3jwICcn5/jx476+vtgYZudeje7QoYOBgYGZmdnSpUsdHR25mbqvXbsm7pIHQRAEQRBEi0ICmyAIQga8efOmtLT07NmzIf9fe3cWEtX7x3FcRQuVLoT8RRmmYYJtF5VpSVhGXpRB/FuIMoI2hVYi1DZI1JlR0cQoJ2zD0MyyckGKsQUTxYkWy1yxxDULyyEohS5+Xzx0siP9sRz7jfV+Xcic5zzznO/zvfvgnHOysvR6vfKuJonWkgAHv21LDn18fAoKCo4cOZKbm/v+/Xtt4vyx7u7uoqIiiaN5eXkvX75Ux+VyRqNx0MSxR/og3Th69GhhYeGMGTOUZ78pPD09JWlLJ1evXr1r164TJ05IB4qLi7k1GgAA2CACNgCMik+fPkVERKjp2sPDIygoKDk5OSUlJT09/WcfXWYymSRnuru7BwYGTp8+3cHBITY2Vjm1du3aPXv2fD/9Ozt27FAn2zLpiXRG+nP27NmQkJCpU6cqSVu5NX3oU9YBAABsDQEbAKyvoaEhICBA+Zd1cHCw0Wj8+PGjBMjo6Ohnz55pk+Uw+Pj4rFmzRo3ltbW15eXl30/5IeV+b+2orZL+xMTE9PT0SMeysrJWrFihxOwFCxZIV7WNBgAAsCUEbACwsqtXr/r6+kqsvXTpkvpIrd7e3kOHDv3a7dbd3d12dnaZmZnaEwPi4+NPnz6tfK6srFy/fv3cuXP9/f3Dw8MbGxtTU1MnT54s+fx/A+rr65WZeXl5UuGcOXMkt5eVlSmDx48fP3/+fEpKinx90aJFshEpW6/Xz58/f+nSpcXFxco0cfv27U2bNsl4QEDA3r17W1tb1VMjJ12SXlm+PrNdepiTk7Ny5UrpqpT0rdEAAAA2hoANAFbz5cuXkpKSa9euDX1U9bFjx9ra2rRRctimTZsmafbu3btDb9tetWrVzp07LQMvwXJ3d9++fbskYakhKirqyZMnDx48UB5anjWgo6NDZkogd3V1jY2NLSwsjImJcXZ2rqiokPHg4OApU6ZIcs7Nzd29e7ejo+OWLVu2bt0qh7Ksi4tLc3OzclGdTifB/tatWxJ9AwMDFy9ePKgiK5BeSdrX9FC6KvuSDitv0gYAALA1BGwAGHVlZWX5+fnaEPkzSktLvb297ezsJOUuX7783Llz6ik1YD99+lQm1NXVffvaAM1PxHt6eiZOnJiUlKSObN68ed26dZaBgC0xXhns7e2VsB0UFKQcSrB3c3O7cOGC+i3Vq1ev5LqPHj3SnhgZ6djDhw+1rQQAALBhBGwAGHU6nU4bH3+eJN779+/r9XqJwRJo9+3bp4yrAVuS88yZMz09Pffv319QUKDesK0J2JWVlfL1bdu2xcTEREdHR0VFhYSEzJo1yzIQsAfPXLhw4YEDB9RDmaNupLm5+eDBg0uWLJFBPz8/e3v769evqzOtRTarbSUAAIANI2ADwKiToKjNjiMTGRnp5OQkidoyKGCLzs7OtLS0sLCwCRMmeHl5VVdXW4YE7Hv37knAlhB+YpDU1FTLQMAenKgDAwMlhKuHs2fPjouLUz7PmzcvNDT05s2bFRUVZrNZisnOzlZnWovBYNC2EgAAwIYRsAFg1CUmJmqz48ikp6fb29tLnLZ8H7BVcsrX11dStDIhIiJCPdXS0uLg4HD58uVvs78aZsBubGyUiP748WNlXD7I4WgEbOmbtpUAAAA2jIANAKOuqqpqJPdgv3v3bsOGDSaTqbu7Ww5lNT8/P39/f+WsGrBrampu3Ljx4cMHy0CK9vb2Vl5/HRkZGRAQ0NTUJKm7t7dXRjZu3Ojl5aU82EyYzeaCggLLsAP2mzdvnJycTp48KZ/b29tDQkIk7Vs9YMteZKfaVgIAANgwAjYA/A7x8fGvX7/Whsjh6enpCQ0NdXZ2dnBwkL92dnbLli178eKFclYN2BKY//nnn3Hjxnl4eIwfPz4sLEySsIxXV1dLVFa+qDyKrKurKzw83NHR0c3NzcXFRf6mpaVZhh2wRXJyslxo0qRJrq6uCQkJsoh1A7b0SjqmbSIAAIBtI2ADwO/Q19d3+PDhX87YloH/Y0tUrqqqam9v154bpK6uTpJ2S0uL9sQQHR0dMrOmpmboq7+Go62trbKy8v8X82ukeOmVdEzbRAAAANtGwAaA3+Tz5886nc5kMmkDJQYpLS3V6/XSK237AAAAbB4BGwB+q6KiooSEhIaGBm2y/OtJT6Qz0h9tywAAAMYIAjYA/G59fX0ZGRkGg0F5jRakD9INo9HIz8IBAMCYRsAGgP9Gf39/dnZ2XFzclStXlMeD/21k17J36YD0QbqhbRAAAMBYQ8AGgP9YfX19ampqfHx8Tk5Oa2urNob+cWSPkqtlv7Jr2bu2HQAAAGMWARsAbEVTU9OZM2d0Ol1SUlJJSUlnZ6c2m45ZshfZkexLdid7lJ1qNw8AADD2EbABwOb09/ebzeZTp07p9fr4+PiMjIzy8vKx9TNyqVZqNhqNUr/BYJC9yI74HTgAAPizEbABwNa9ffv2zp07aWlpuq8yMzNl5JdfYW1dUoNUIvVIVWqFUq2MSOXazQAAAPy5CNgAMPZ0dXVVVFTk5uYmJycbDAa9Xq/E2oSEhIsXL+bn55tMJrPZXFtbO/L/e8sKso6sJmvKyrK+XEW5nFxXri41SCVSj1SlLRQAAOBvQsAGgD9KW1vb8+fPy8vLCwsLc3Jy0tPTExMTDV8pUVz/Y2psVsh3ZQVZR1aTNWVlWV97SQAAAAwgYAMAAAAAYAUEbAAAAAAArICADQAAAACAFRCwAQAAAACwgn8BPpU+eVQKbgoAAAAASUVORK5CYII=;" vertex="1" parent="1">
          <mxGeometry x="-1550" y="90" width="2227" height="478.67" as="geometry" />
        </mxCell>
      </root>
    </mxGraphModel>
  </diagram>
</mxfile>
